<svg width="36" height="36" viewBox="0 0 36 36" fill="none" xmlns="http://www.w3.org/2000/svg">
<circle cx="18" cy="18" r="18" fill="black"/>
<g clip-path="url(#clip0)">
<path d="M28.3708 10.9927L19.9352 18.4519C19.5029 18.8341 18.9354 19.025 18.3677 19.025C17.8001 19.025 17.2325 18.8341 16.8005 18.4519L8.36469 10.9927C8.18515 11.2758 8.08203 11.6018 8.08203 11.9489V23.9361C8.08203 25.0168 9.07629 25.8961 10.2986 25.8961H26.437C27.6592 25.8961 28.6535 25.0168 28.6535 23.9361V11.9489C28.6535 11.6018 28.5503 11.2758 28.3708 10.9927Z" fill="white"/>
<path d="M19.0825 17.6981L27.5181 10.2387C27.198 10.0798 26.8291 9.98877 26.4368 9.98877H10.2983C9.9058 9.98877 9.53697 10.0798 9.2168 10.2387L17.6524 17.6981C18.0468 18.0467 18.6883 18.0467 19.0825 17.6981Z" fill="white"/>
</g>
<defs>
<clipPath id="clip0">
<rect width="20.5714" height="18.1903" fill="white" transform="translate(8.08203 8.81641)"/>
</clipPath>
</defs>
</svg>
