<svg xmlns="http://www.w3.org/2000/svg" viewBox="0 0 581.83 444.65"><defs><style>.cls-1{fill:#3fc9c8;}.cls-2{fill:#faeaea;}.cls-3{fill:#232647;}.cls-4{fill:#c4c4c4;}.cls-5{fill:#f39dc0;}.cls-6{fill:#ffb929;}.cls-7{fill:#36c;}.cls-8{fill:#2e4ea1;}.cls-9{fill:#3a280d;}.cls-10{fill:#b27538;}.cls-11{fill:#f2bf9c;}.cls-12{fill:#a17654;}.cls-13{fill:#fde6de;}.cls-14{fill:#cb9e68;}.cls-15{fill:#472808;}.cls-16{fill:#cca06a;}.cls-17{fill:#cda16d;}.cls-18{fill:#f9e4dc;}.cls-19{fill:#a17758;}.cls-20{fill:#fce6df;}.cls-21{fill:#f4cdb0;}.cls-22{fill:#f46d36;}.cls-23{fill:#181a31;}.cls-24{fill:#1f2036;}.cls-25{fill:#222339;}.cls-26{fill:#202137;}.cls-27{fill:#21233b;}.cls-28{fill:#1a1b32;}.cls-29{fill:#1e1f36;}.cls-30{fill:#f4e4e5;}.cls-31{fill:#fefefe;}.cls-32{fill:#ef6aa7;}</style></defs><g id="Layer_2" data-name="Layer 2"><g id="map"><path class="cls-1" d="M352.44,110c.52,2.52,3.86,2.22,4.66,5.12-4.47,8.13-12.89,10.59-21.4,13.71-2.28-8.21-7-14.64-11.05-21.48-2-3.42-1.64-7.06-.12-10.78-10.45,1-11.14.68-14.65-7.32-5.44-.41-1.5,5.45-4.76,6.81L301,90.56c-.13-6.43-6.33-6.63-9.59-9.86.1,4.74,4.31,6.09,6.7,8.9-3.77.63-6.48-1.39-9.1-3.64-1.11-1-1.45-3.13-3.27-2.89-2.61.36-6.72.49-7.38,2-1.43,3.21-5.44,3.62-6.19,7.64-.68,3.68-4.44,4.4-8.3,3.55s-3.94-3.06-4-6.54c-.06-5.15,1.45-6.72,6.42-5.53,1.62.39,4,.84,4.78-1.64.68-2-.28-3.66-1.76-5-.86-.76-1.82-1.42-3-2.32,2.49-2.09,6.27-1.21,8-4.06l1.05-2a22.6,22.6,0,0,0,10.29-7.56c2,.63,3.8,2.45,6.17,1.17,3.46,1.73,6.57-.9,9.91-.82.8,0,1.34-1.08,1.27-2-.26-3.52,1.64-4.15,5.2-3.23-2.29-1.83.57-4.35-1.17-5.16-3.31-1.54-3.15-4.45-3.85-7.12,2-1.71,4.81-2.71,5.73-5.9-2.45-1.56-4.46-1.67-5.2,1.67-.29,1.35-1.36,1.88-1.92,2.89-5.17,1.85-4.47,5.07-1.29,9.26-4.95.78-2.17,6.93-6.67,8.1-4.81.63-2.23-4.93-5-6-.21-2.28-1.52-1.28-2.42-.69-1.78,1.18-4.13,2.7-5.08,0s-2.8-6.44.59-8.42c5.7-3.32,9-8.57,12.88-13.48,4.55-5.69,12.25-8.27,18.16-7.09,6.19,1.25,13.42,3.28,18.49,8.4.39.41.31,1.28.45,1.94-2.95,2-6.34.52-9.53,1.15,0,2.13.25,4.05,2.44,5.33,3-1.33,6.14-2.45,8-5.6,3.52-1.12,7.43-1.34,10.39-3.76,3.14-2.55,10.5-1.92,15.52-2.12,1.54-.76-.09-2.2.72-3.15,2.56-.11,5,0,6.76,2.36,2.17-1,.32-3.27,1.81-4.89,2.37-2.56,3.75-5.49,7.3-1.39.8.92,3.65,1.53,4.16,1,2.58-2.77,5.13-.9,7.87-.15-.24-1.63-1.93-2.3-1.25-4.4,6.71,1.71,9.44-6.45,15.93-6.62,4.83-.13,10,.06,13.33-4.63.17-.23.75-.48.91-.37,4.2,2.82,10.1,1.45,13.56,4.63.56,2.91-2.2,2.73-2.28,5.38,4.67,1.76,10.05,3.32,14.93,2.41s8.06-2.08,8.89,4.17c.1.76.91,1.42,1.37,2.09,2.08-.93,3.23-2.27,5.41-1.87a10.19,10.19,0,0,0,8.67-2.14c3.24-2.43,8.2-1,11.93,1.33,2.53,1.57,4.87,2.64,8,2.06,2.45-.44,5.12-.56,6.55,2.54.9,2,2.76.45,4.16.56,4.11.33,8.12,2.08,12.4-.06,1.53-.78,4,.05,6,.48,6.25,1.36,10.59,6.76,17.37,7.45-3.87,5.08-3.87,5.08-12,1-.73,1.69-1.7,3.35-3.8,3.54.22,1.53,1.63,2.46,1.15,4.15a16.52,16.52,0,0,0-10,4c-2.35,2.09-5.28-.14-7.89,1.2-2.45,1.25-4.46,1.43-4.06,5.52.53,5.37-4.91,8.06-7.8,12.09-4.18-8.11-.53-13.17,6.17-17-1.94-2.85-3.57-6.1-6.73-2.71-2.92,3.13-5.21,4.34-10.07,3.83-9.33-1-9.46-.1-17.61,8.46.39,4.4,6.77-.3,6.86,4.6,0,.44-.05.88-.07,1.32-.63,5.27-3.21,9.47-6.75,13.34-3.22,3.51-10,1.76-10.64,9.22,2.53,5.22,2.53,5.22-1.94,6.8-.86-7.79-6-10.65-11.72-6.6.75,2.46,3.05,1.84,5.67,1.88-2.55,2.27-3.81,3.72-2.38,6.61,2.85,5.74-.47,13.33-6.66,15.77-3,1.16-5.91,2.74-9.36,2.13-1.75-.31-2.89.87-3.71,2.24-1,1.61.49,2.5,1.28,3.51,4.63,6,4.54,6.54-2.07,11.34-2.6-1.46-3.82-4.79-7.1-5.5-1.8.26-.44,2.45-1.47,3-2.4-2,.57-7.78-5.74-7.37-.39-3.22-2.94-5.54-5-8.27C389,117.34,385.31,126,381.74,136.31c-3.88-7.44-7.16-13.08-6.83-20-5.5,1.42-5.84-6.17-9.85-5.8-4.33.4-8.44-1-12.67-.43-3.79-1.55-6.56-4.7-10.37-7.73C343,110.27,347.55,113.09,352.44,110ZM332.58,86.92c-3.11-3.41-5.8-7.32-11.35-4.72l-3-3.67c-3.15,1.84-3.79,5.08-5.49,7.56C314.89,87.88,329.76,88.44,332.58,86.92ZM348,76.77c-2.32-1.11-3.8-.4-5.3,2.09-1.2,2-3.64,3.72-1.05,5.94a4.13,4.13,0,0,1,1.51,4.79c-.4,1.64.9,2.37,2.1,3.08a2.68,2.68,0,0,0,3.31-.21c1.27-1.08.63-2.38.27-3.71a24,24,0,0,0-3.39-7.89C345.58,78.71,348.64,79.51,348,76.77Z"/><path class="cls-1" d="M114.34,46.44c4.64,3.19,9.12,2.78,13.37-.44V38.21l1-1,2.29.92c3.34,3.59,6.68,7.17,10.14,10.9l3.09-2.61c.91-.82,1.41-2.23,3-2.09,4,.77-.09,4.64,2.62,5.66-2.16,2.61-4.58,2.73-7.75,1.73,1.27,3.73-.53,5.17-3.42,6.1s-5.09,3.35-6.81,5.81c-2.77,4-1.33,8.18,3.46,9.24,4.09.91,7.15,4.1,11.39,4.39,1.71.11,1.52,1.62,1.79,2.68a7.65,7.65,0,0,0,3.57,5.2c4.07-7.42,4.27-15.29,2.62-23.72,6,.25,10.51.83,13.18,7,1.88,4.33,4.57,1.24,6.21-1.23,2.09.13,2.79,1.92,3.23,3.07a17.53,17.53,0,0,0,8,9.21c2,1.17,1.94,3,1.67,4.89L185,85.51c-1.31.32-2.61.68-3.93.95-2.48.52-5.19,0-6.36,3.57-1.3,4,2.14,4.34,3.94,6.27a3.38,3.38,0,0,1-4.44,1.08c-3.13-1.49-6.64.6-7.16,2.09-1.29,3.67-4.77,4.42-6.87,6.83-1.7,1.94-3.61,3.08-2.45,6.15.47,1.23-.76,2.59-2.12,3.18-5.32,2.3-6.3,6.13-4.07,11.17.49,1.11.88,2.3-.56,3.22-1.81-.33-2.43-2.09-2.56-3.32-.36-3.47-2.83-4.12-5.35-4.23-4.24-.17-8.46.79-12.62,1.36-5,.67-4.12,5.75-4.64,9.32a7.24,7.24,0,0,0,4,7.21c1.95,1.09,4.88,1.12,6.1-1.76,1.1-2.61,3-2.9,5.82-2.5-.73,2.8-1.43,5.47-2.12,8.14,1.46.8,2.81.37,4.15.34,2.32,0,3.89,1.34,3.14,3.48-1,2.83.3,4.9,2.35,8.42a24.43,24.43,0,0,1-6.48-4.78,22.57,22.57,0,0,0-14.47-6.77c-5.51-.38-11.48-4.69-14.41-9.68a26.87,26.87,0,0,0-9.78-9.83l.38-.77L103,124.5a9.22,9.22,0,0,1-5.94-5.63c-1.62-3.78-6.34-4.39-8.17-8.62a25,25,0,0,1-2.41-11.61c.15-3.49,1.24-7.33-2-10.24l-1.17-.89c-2.44-2.91-3.6-6.59-6.29-9.46-5.09-5.42-11.14-8.64-18-11.37-5.42-2.16-9.65,1.08-14.5.92-2.3-.07-1.56,5.07-5.15,5.16-.68,0-1.35.84-1.92,1.23-1.71-1.17.09-2.37-.69-3.74-3.22.27-5.57-2.66-8.94-3-2.1-.23-2.48-2.39-2.67-3.92s1.19-2.88,2.68-3.36c1.73-.55,3.53-.75,4.83-3-3.69-1.19-7.92,1.59-10-2.83,1.15-1.73,3.75-1.7,5.09-3.07.05-2.58-2.6-2.33-3.37-4.11,2.39-1.6,4.85-3.17,7.23-4.84,6.17-4.33,12.48-1,18.66-.24,5.32.68,10.78.95,15.82,3.3,2.36,1.11,4.72-.55,6.86-1.2,8-2.43,15.43-.82,22.94,1.65.75.28,1.49.6,2.26.83C103.57,48,109,47.31,114.34,46.44Z"/><path class="cls-1" d="M283.45,96.76c-.51,9.2,7.88,7.73,12.75,11.62,1.17-4.74,3.72-4.74,7.32-3.3,2.88,1.15,5.85,2.14,9.37,1.34,4.48-1,5.9,1,5,5.63-.09.49-.46,1.09-.28,1.44,3.16,6.26,4.8,13.31,9.65,18.69.33.37,1.06.49,1.22.88,2.74,6.69,8,5.11,13.84,3.55a21.91,21.91,0,0,1-8,14.12c-1.81,1.55-3.48,3.25-5.31,4.74-4,3.26-4.7,7.32-3.19,11.88,1.86,5.64,2.38,10.59-4.14,13.78-1.88.92-3.49,2.51-2.28,5.4.77,1.85.27,3.62-1.91,5.16-2.68,1.89-2.9,5.69-4.7,8.5-3.88,6.07-9.9,5.94-15.65,6.88a2.65,2.65,0,0,1-2.69-2c-2.95-8-5.07-16.3-9.05-23.91-1.18-2.27-.18-4.58.79-6.38,3.32-6.11.7-11-2.57-15.95-.84-1.26-2.23-2.23-2.07-4,.33-3.53,2.14-6.88-4-8.27-3.52-.79-6.37-1.84-10-.65a19.18,19.18,0,0,1-23.49-10.82,5.71,5.71,0,0,1,0-4.5c.71-1.61,1.2-3.48.55-5-1.71-4,.4-6.81,2.29-9.83,2.62-4.2,7.15-6.67,9-11.86,1.29-3.6,6.5-3.39,10.26-4.57C271.81,97.59,277.42,97.69,283.45,96.76Z"/><path class="cls-1" d="M187,225.73c-4.75-2.39-5.42,2.91-7.8,4.62-.93.66-.52,4-2.47,5.59s.76,2.87,1,5c-4.11,2.1-4.29,7.26-7.05,10.49-5.15-2.83-5-7.55-5.2-12.14,0-.81-.42-1.34.49-2.11,2.59-2.22,2-5.16,1.23-8s-1-5.51.05-8c3.56-8.19,2.64-17.09,4.4-25.55a5.67,5.67,0,0,0-3.17-6.47c-3.8-1.69-5.76-4.69-7.13-8.25-1.73-4.5-6.52-8.1-4.45-13.73,2.23-6.08,4.68-12.09,7.16-18.08a3.18,3.18,0,0,1,3.34-2c6.58,1.72,14.28-.53,19.64,5.45a7.79,7.79,0,0,0,5.74,2.79,6.23,6.23,0,0,1,6.16,5.81c.31,2.94,2,3.23,4.21,4.22,5,2.31,10.84,2.32,15.5,5.92,3,2.3,3.16,4.63,1.2,6.85-3.15,3.58-5.15,7.21-5.16,12.18,0,7-6.38,8.23-11.05,10.88-4.44-.65-9.69,2.13-11.49,6.14a4.14,4.14,0,0,1-2.57,2.24c-1.72.64-2.08,2.06-1.86,3.72C188.29,217.49,187,221.57,187,225.73Z"/><path class="cls-1" d="M237.41,38.25c2.16,1.58.71,3.15-.33,4.29s-2.68,2.75-4.12,2.84c-7.61.46-12.66,6.55-19.6,8.51-3.57,1-3.31,5.44-5.05,8.16-.84,1.32-1.08,3.13-2.3,4.68-4.55-2.38-10.89-2.65-10.14-10.25,0-.33-1.35-.67-1.88-1.21a5.74,5.74,0,0,1,.94-9.2,2.54,2.54,0,0,0,1.14-2.77c-.88-1.66-2.83-.3-4-1.24.37-1.38,1.75-.48,2.54-1.1-.35-3.48-3.31-2.13-5.2-2.56-.11-8.94-5.51-13.79-14.41-13.2-3.15.21-6.34.78-7.56-3.58-.31-1.11-2.28-1.75-3.78-2.81,3.29-2.67,8-1.77,10.95-4.65-.45-2.18-4-.95-3.62-3.68,3.09-.44,5.23-2.77,8-3.94,7.51-.78,15.17-.83,22.53-1.82a61.6,61.6,0,0,0,11.74-3c8.22-2.93,15.93-2.07,23.44,1.61,1.12.55,1.26,3.11,1.81,4.62,4.38.23,8.56-3,14-.7-5,3.87-10.43,6.31-13.48,12a5.87,5.87,0,0,1,4.46,3.49c-1.14,1.08-3.11-.58-4,1.17,4.06,2.66,3.86,5.89-.62,9.37-2.22-.71-4.45-1.55-6.42.28A8.93,8.93,0,0,0,237.41,38.25Z"/><path class="cls-1" d="M462.52,216.79c-2.42-1.54-3.84-4.14-5.93-5.88-4.33-3.61-9.58-2.4-13.94-.25-3.95,2-8.34.61-12.13,2.81-1.34.77-3.8-.82-3.52-2,1.31-5.61-1.74-10.58-1.81-16,0-4,1.56-6.82,5-7.13,6.28-.58,10.1-4.64,14.38-8.28,3.19-2.72,3.23-2.67,7.23-.32,3-5.25,7.21-6.82,12.87-3.38l-2,4a29.27,29.27,0,0,0,7.09,5.29c4.11-2.54,1.54-7.44,4.7-10.67.78,3.76,3.94,6.13,4.33,9.86.46,4.43,3.95,7.17,6.49,10,5.56,6.15,5.68,12.22,2.26,19.07-7.41-7.63-15.33-7.37-21.86.74C464.79,215.63,464.13,216.86,462.52,216.79Z"/><path class="cls-1" d="M178.91,6.54c-2.73,1.17-4.87,3.5-8,3.94-4.4,2.31-9.13,3.56-12.51,8.15C156,22,152.72,26.3,147.19,25.91c-3-.41-6.25.91-9.16-.88-.05-1.41-.09-2.82-.13-4.23,1.73-2.67,5.79-2.8,6.67-5.25-1.81-3.61-5.6-3.4-7.62-6,.16-5,5-3.92,7.3-4.45,6.15-1.41,12.33-3.26,18.86-2.86a71.89,71.89,0,0,1,14.46,1.89C179.21,4.61,179.4,5.22,178.91,6.54Z"/><path class="cls-1" d="M147.25,44.35c-1.58-.14-2.08,1.27-3,2.09.16-2.59-1.59-3.46-3.61-4.28-2.64-1.07-4.35-3.08-3.14-5.93,1.15-2.7,3-5.22,6.63-3.16.91.51,1.6.1,2.4.06,5-.26,9.75-.43,13.67,4,1.9,2.16,5.41,2.91,8.17,4.32,2.28,1.17,3.34,2.66.78,5.06a31.49,31.49,0,0,1,10.24,4.51c-1.11,2.79-3.73,3.48-6.17,5,2.53,3.57,1.67,5.16-3.13,3.71L171.64,62c-5.67.5-8.24-4.47-12.89-6.16l4.14-6C158.24,46.64,154.13,41.85,147.25,44.35Z"/><path class="cls-1" d="M114.34,46.44c-5.38.87-10.77,1.59-16.14,0-.77-.23-1.51-.55-2.26-.83l2.12-.22c-1-3.09-1.93-6.07-4-8.51,1.8-1,4-1.42,4.9-3.62,5.38,2.83,10.7,4.31,16.13-2.25-.15,5.72,0,9.94,5,11.2C119.3,45.6,117.3,46.73,114.34,46.44Z"/><path class="cls-1" d="M484.59,173.08c-1.73,1.07-2.41,0-3.1-1-1.43-2.06-2.75-3.08-5.33-1.07-3.19,2.48-5.18-2.54-8.39-1.6,2.72-6.77-4.84-5.59-6.5-8.88,5.16-2.21,9.61-2.14,14.6,1.1C480.44,164.61,483.47,167.91,484.59,173.08Z"/><path class="cls-1" d="M137,9.58c2,2.57,5.81,2.36,7.62,6-.88,2.45-4.94,2.58-6.67,5.25-2.5-1.62-5.38-2.47-7.66-4.65-1.79-1.71-3.12-3-1.43-5.21,1.48-1.88,3.33-3.69,5.86-1.25C135.52,10.51,136.2,9.8,137,9.58Z"/><path class="cls-1" d="M339.85,172.41c2.76,3.28.13,6.43-.41,9.59a56,56,0,0,1-2,6.31c-.61,2-1.24,4.42-3.92,3.51-2.37-.81-2.34-3.22-2.41-5.56C330.93,179.61,336,176.46,339.85,172.41Z"/><path class="cls-1" d="M432.39,151.58a36.15,36.15,0,0,1-5.66-1.58c-2.94-1.33-3-4.47-.51-6.56,2.68-2.25,6.34-3.22,7.91-6.7C437.77,139.62,437,145,432.39,151.58Z"/><path class="cls-1" d="M371.61,7.49c-7.32,4.48-19.17,4.43-18,18.13-2.83,1.16-4.21-2.46-6.85-3C353.27,11.05,360.34,6.6,371.61,7.49Z"/><path class="cls-1" d="M138,25c2.91,1.79,6.12.47,9.16.88l6.36,1.94c-6.48,5-12.86,2.42-18.61,3.31l-2.19-2.3c0-1.08.43-2.31-.94-3C133.35,21.85,135.92,25.07,138,25Z"/><path class="cls-1" d="M275.41,69.2l-1.05,2H265.9c4.51-5.92-1.74-10.79,0-16.69C270.17,58.8,272.87,64,275.41,69.2Z"/><path class="cls-1" d="M98.91,33.24c-.9,2.2-3.1,2.64-4.9,3.62-3,2.57-6,4.82-9.18.25C87.13,29.38,92.74,27.83,98.91,33.24Z"/><path class="cls-1" d="M415.1,143.93c.7,3.59,7.11,4.63,4.07,10.33-7.25-2.5-7.82-10.9-13.77-14.48,3.24-2.27,4.31,1.67,6.55,1.06A6.44,6.44,0,0,0,415.1,143.93Z"/><path class="cls-1" d="M264.38,39.14c-5,5-10.41,5.87-13.29.1C258.41,35.6,261.55,35.58,264.38,39.14Z"/><path class="cls-1" d="M494.07,240.29a1.66,1.66,0,0,1-.12-.88c2.93-3.23,7.63-4.23,10.05-8.25,1-1.62,2.22-.07,3.28.9-1.52,3.79-5.19,5.66-7.54,8.67C498.27,242.61,496,240.63,494.07,240.29Z"/><path class="cls-1" d="M128.74,37.23l-1,1c-3.14,1.67-5.4,0-7.57-2,1.6-5,2.5-5.27,6.54-2.21.43.33,1.32,0,2,.06C128.7,35.12,128.72,36.17,128.74,37.23Z"/><path class="cls-1" d="M128.74,37.23c0-1.06,0-2.11-.07-3.17.12-1.34.24-2.68.35-4,1.1,0,2.22,0,2.8-1.22l.46.09.47-.05,2.19,2.3c2,1.49,1.16,2.82-.44,3.73s-2.95,1.49-3.47,3.26Z"/><path class="cls-1" d="M106.13,26.93c2.32.12.33-2.46,2.06-2.93l7,3.15c-4.18,3-11.85,3.82-14.14,1.68C102.34,27.11,104.93,28.87,106.13,26.93Z"/><path class="cls-1" d="M127.77,27.92c-3.09,1-6.16,2-8.63-1.26,2.79-3.79,7.8-3.62,10.43.35Z"/><path class="cls-1" d="M185,85.51l2.08-1.12c.29,1.44-.16,3.56,1.72,3.86,3.18.5,1.22,2.76,2.19,4-3,1.42-5.23.06-7.56-.24C182.79,89.31,185.8,87.91,185,85.51Z"/><path class="cls-1" d="M509.6,232.14c-1.52-3.07-2.6-5.87.52-8.79,1.67,0,2.28,3.41,5,1.94C513.41,227.94,512.2,230.49,509.6,232.14Z"/><path class="cls-1" d="M106.13,26.93c-1.2,1.94-3.79.18-5.07,1.9-2.3,0-5.19,1.15-5.29-2.88l2.06-1C101,23.91,103.71,24.79,106.13,26.93Z"/><path class="cls-1" d="M97.83,25l-2.06,1C94,25.05,92,28.13,90,25.44c1.92-3.07,5-3.71,8.18-4.26C99.63,22.79,98.26,23.83,97.83,25Z"/><path class="cls-1" d="M258.89,68.83c-.55-4.77,1.61-6.5,5.59-7.12C264.79,66,263.25,68.28,258.89,68.83Z"/><path class="cls-1" d="M415.1,143.93a6.44,6.44,0,0,1-3.15-3.09c.51-1.9-.89-3.53-1-5.55C416.71,138.58,417.91,141.18,415.1,143.93Z"/><path class="cls-1" d="M237.41,38.25a8.93,8.93,0,0,1-5.1-4.7c2-1.83,4.2-1,6.42-.28Z"/><path class="cls-1" d="M467.37,67c0-.44.05-.88.07-1.32l2.61-3c-.17,3.91,2.21,6.95-.15,10.39C467.22,71.37,469.57,68.35,467.37,67Z"/><path class="cls-1" d="M127.77,27.92l1.8-.91h1.15l1.1,1.8c-.58,1.24-1.7,1.19-2.8,1.22C128.6,29.33,128.18,28.63,127.77,27.92Z"/><path class="cls-1" d="M443.71,130.57c-.29.72-.79,1-1.5.62-.17-.1-.15-.53-.22-.81l1.73.19Z"/><polygon class="cls-1" points="440.18 127.77 440.28 128.06 440.01 128.02 440.18 127.77"/><path class="cls-1" d="M468.35,87.07c.25,7.18-1.05,9.15-8,11-2.32.63-4.56,1.11-6.61,2.79-.24-3.09,1.37-4.85,4.27-5.62,4.4-1.17,7.71-3.4,8.59-8.21Z"/><path class="cls-1" d="M468.35,87.07H466.6c-1.54-3.28,1.86-4.93,2.45-7.66l4.3,2.9a4.07,4.07,0,0,1-4.05,2.18C466.4,84.3,468.43,86.11,468.35,87.07Z"/></g><g id="ppl"><path class="cls-2" d="M373.66,412.05c.8-3.8.56-7.77,1.25-11.5,1.19-6.46-.13-13.09,1.77-19.43,1.78.94,3.57,4.45,5.32,0,1.8,10.06,3.58,20.12,4,30.35.07,1.58-.9,3.46,1.3,4.4l7.1,3.22a1,1,0,0,0,.38.08c3.5-.08,4.4-1,3.46-4.05-1.16-1.5-2.11-3.19-4-3.74q1.59-13.56,3.19-27.11a32,32,0,0,1,5.57.44c15.47,3.93,31.24,3.84,47,3.75,2.55,0,3.86-.8,3.88-3.4.62,5.56,1.52,11.1,1.74,16.66.13,3.3.95,5.46,4.27,6.27-1.84,2.87-6.78,3.19-6.82,8.11,3.75.41,7-.92,10.26-1.41,2.52-.38,2.08-2.4,1.22-3.93a14.43,14.43,0,0,0-2.77-2.81c2.41-2,5.63-.47,8.17-1.73,1-2.52.81-5.08,1-7.6.49-5.53-.45-11.14,1-16.61.23,3.31-.71,7.57,5.13,6.39.5,6.4,1,12.8,1.51,19.28l3.75.31c-.07,3.16-3.11,2.6-4.78,3.58s-3.36,1.71-2.3,4.37a13.51,13.51,0,0,0,2.86.15c2.93-.46,6.69,1.17,8.66-1.59,2.47-3.45-3.3-3.72-3.37-6.5,2.91-1.52,6.3-.51,9.18-1.52,1.06-2.67.68-5.25.92-7.77.56-5.88-.52-11.86,1-17.68.14,2.2.27,4.39.39,6.52,2.42,1.48,4.87.77,7.2.84,20.58.67,41.06,2.1,61.14,7.13a49.23,49.23,0,0,1,12.67,5.38c6.3,3.67,7.52,8.91,3.3,15.09a56.76,56.76,0,0,1-27.74,21.71c-11.14,4.13-22.75,5.14-34.47,6.31A174.33,174.33,0,0,1,484,443.7c-15.54-1.4-31.12-2.41-46.59-4.74a246.64,246.64,0,0,0-26.9-2.29c-41.85-1.61-83.72-1.6-125.57-.87-25,.43-50,2.26-75,3.17-20,.71-39.94.15-59.91.7-13.81.38-27.66.13-41.41,1.2A516.85,516.85,0,0,1,54,442.67c-15.11-.43-29.56-3.56-43-11.25-9.73-5.58-11.75-14-10.78-23.91.85-8.78,5.7-14.56,13.91-17.91a74.89,74.89,0,0,1,23.3-5.16c13.3-.91,26.52,0,39.45,3.92,5.19,1.57,10.7,2.05,16.07,3l5.18,13c-2.49,3.76,1.84,5.58,1.4,9-.88.57-1.84,1.25-2.84,1.84-1.75,1-2.44,2.37-1.22,4.18s2.67.79,3.94,0c2.15-1.32,4.23-2.74,6.35-4.12-.18,3.22,1,4.51,4.29,3.21,2.84-1.14,5.79-2,8.57-3.27,3.4-1.53,3.9-8.8.92-11.63.25-3.36.49-6.73.73-10.09,6.26-.36,12.54-.48,18.76-1.14,15.28-1.62,30.67-2.35,45.83-5,.36,2,.39,4.09,1.16,5.89,1.63,3.8-.67,8.94,4,11.66,1.25,1.81,1,3.86,1,5.88-.78,2.73-4.52,4.67-2.39,8.82l9.51-5.93a5.42,5.42,0,0,0-1.94-3.75l.21-5.45a2.77,2.77,0,0,0,.82-2.54c-.33-5.59.53-11.1,1-16.63,3.14.48,6.1-.71,9.15-1,.28,6.73,1.54,13.4,1.14,20.18-.1,1.53-.13,3.16,2,3.44,0,1.32,0,2.63,0,3.95-1.21.62-2.4,1.3-3.65,1.84s-2.09,1.32-1.71,2.71c.45,1.62,1.85,1.13,3,1.05l8.05-.53a4.39,4.39,0,0,0-.46-4.8l-.14-4.22c1-1.5.91-3.21,1.11-4.9.92-7.63,2-15.25,3-22.87.61,3.08,3.15,2.26,4.9,2,12.12-1.55,24.28-.73,36.42-1a17.61,17.61,0,0,0,3.88-1q2,15.88,4,31.75a8.82,8.82,0,0,0-3.85,3.55l2.77,3.28c6.6-2.16,6.6-2.16,7.22-5.58.4-3.53.8-7.07,1.22-10.6q1.46-12.3,2.94-24.6c0,2.2.86,3.39,3.27,3.23,2-.13,4,0,6,0,.35,1.3.8,2.57,1.05,3.89q3,15.89,5.88,31.79c.16,4.33,3.93,4.11,6.56,4.79,1.32.34,2.86.23,3.35-.56a2.85,2.85,0,0,0-1-4l-2.5-2,2.31-34.93c1.64,1.16,3.53,1,5.4,1h52c1,.91.75,2.15.92,3.3,1.34,8.95,2.72,17.9,4.08,26.85"/><path class="cls-3" d="M120.27,393.51c-.24,3.36-.48,6.73-.73,10.09l-7.67,1.15q-.86-5.64-1.73-11.27c-2.19-18.43-4.38-36.86-6.72-56.52-5.34,19.85-2.67,38.22,1.48,56.55a21.2,21.2,0,0,0,1.83,9.25c-3.59-.54-6.17,2-9.26,3l-4.62-14.39c-1.63-5.89-2.85-11.94-5-17.65-3.35-9-3.92-18.18-3.35-27.6.42-7,.79-14,.62-20.95-.17-6.68,1-13.2-1.6-20.09-2.84-7.53-1.11-16.11-.9-24.9-8,2.48-15.57,4.88-23.18,7.13-1.64.48-3.29,1.91-5.17.56l-1.85-4.14c6.27-5.32,14-8.15,21.07-12.05,3.5-1.93,5.85-4.17,7.14-8,2.29-6.75,5-13.35,7.51-20,2.82-7.44,7.42-12.94,15.68-14.5,2,0,2.78.48,2.22,2.89-.5,2.2,1.23,3.88,3.45,4.16s2.84-1.34,3.12-3.18c.14-1,.16-2.05,1.34-2.48,12.12,3.24,16.57,12.56,18.46,23.67,1.36,8,5.59,14,11.71,19,3.94,3.26,7.48,7,11.19,10.53-.39,2.15-2.17,3.4-3.3,5.08l-22.42-14c-.12,12-.44,23.11-3.18,33.92-.63,2.47-1.23,4.81-4.32,5.27,2.17,9.11,1,18,.55,26.81C121.81,358.4,121.07,376,120.27,393.51Z"/><path class="cls-4" d="M376.68,381.12c-1.9,6.34-.58,13-1.77,19.43-.69,3.73-.45,7.7-1.25,11.5-2.38-.35-4.91.81-7.18-.71-1.36-8.95-2.74-17.9-4.08-26.85-.17-1.15.07-2.39-.92-3.3-.92-7.23-1.86-14.46-2.74-21.7-1-8.55-3.17-16.93-1.79-25.78.92-5.86.18-12,.18-17.95-4.05-.08-5.52,3.54-9.26,3.33,1-9.22,2-18.3,3.06-27.68-4,1.13-5.66,4.77-9.1,5.6-.94-1.56-2.08-2.84-4-3.05,2.29-6.08,6.08-11.37,9.05-17.1,6-11.65,12.14-23.28,18.08-35,2.58-5.09,6-9.11,11.77-10.5,0,.4,0,.81,0,1.21-1.67,1.17-2.23,3-2.71,4.81-2.52,9.36-4.93,18.76-7.4,28.14-3,11.28-2.94,22.92-4.13,34.41-.37,3.59-2.15,7.25-.33,11.47,12.28-.76,24.31,2.55,36.88,3.08-.41-2.22-.57-3.57-.9-4.88-3.54-13.88-6.15-27.81-6.36-42.3-.14-9.35-.39-18.74-.71-28.12-.13-3.89-1.13-6.8-5.82-6.53l-.06-2.36c9.07.55,14.24,5.94,16.91,14,4.07,12.33,9.47,24.12,14.91,35.84,3.05,6.57,7.76,12.39,11.91,18.42,1.44,2.1,2.2,4.07,1.24,6.5a3.41,3.41,0,0,0-3.26,3.28c-3.78-1-5.46-4.41-7.87-6.95-1.89-2-3.26-4.55-6.13-5.74-1.2,9,3.16,17.93-1,26.39-3.39.33-5.12-3-7.93-3-1.2,11.07-2.44,21.87-3.53,32.68s-2,21.66-3,32.48q-1.59,13.56-3.19,27.11c-1.22,1.28-2.81.72-4.19.65-3.1-.14-3.86,1.11-2.72,3.84-2.2-.94-1.23-2.82-1.3-4.4-.46-10.23-2.24-20.29-4-30.35-.37-7.27-1.24-14.44-3.68-21.33C377.54,366.92,376.38,374,376.68,381.12Z"/><path class="cls-5" d="M281.4,240.52l1.76.29c3,4,4.5,3.94,8.42-.09,6.14,1.78,10.06,6,12.84,11.55a22.8,22.8,0,0,1,1.71,3.69,77.15,77.15,0,0,0,23.08,36.52,11.09,11.09,0,0,1,1.61,2.54c-1.38,1.49-2.13,3.54-4.07,4.54l-16.87-11c.18,3.14.16,5.32.46,7.46,1.36,9.67.81,19.39.7,29.1,0,1.91.43,4.5-3,3.74a5.56,5.56,0,0,0-1.77-.86c-15.57-1.23-31.15-2.25-46.72.08-3.76.5-4.95-1.18-4.94-4.89a128.82,128.82,0,0,1,1.63-19.32c2.17-13.72,4.15-27.47,6.31-41.89-12,1.77-23.43,3.11-32.8-5.84,6.22,0,12.45,2.32,18.67-.18,6.63-2.66,13.32-5.15,19.94-7.81,1.61-.65,3.9-.93,3.29-3.67C275.24,244.07,277.85,241.12,281.4,240.52Z"/><path class="cls-6" d="M271.61,244.48c.61,2.74-1.68,3-3.29,3.67-6.62,2.66-13.31,5.15-19.94,7.81-6.22,2.5-12.45.16-18.67.18-1.5,0-2.89-1.08-4.51-.44a15.44,15.44,0,0,0,0,6.56c2.83,16.4,4.05,33,5.65,49.54.21,2.25.2,4.17-2.88,3.91-2,0-4.09,0-6.13-.13-12-.66-24.07,2.4-36-.82-2.54-.15-2.75-1.44-2.5-3.78,1.18-11.31,2.09-22.65,3.19-34.91-5.52,3.32-10.39,6.3-15.32,9.18-2.75,1.61-5.42,3.61-8.94,2.8L161,285.71c14.81-11.35,23-27.43,31.09-43.56,2-3.92,4.2-7.48,9.18-7.85.84,1.68,1.76,3.4,4,3.07s2.21-2.17,2.33-3.86c1.43,1.38,3.25.93,5,1.06,4.47.67,7.55,4,11.35,6,12.82,6.61,25.68,4.66,38.59.48,2.75-.89,5.44-2.08,8.44-1.23C271.16,241.35,271.38,242.91,271.61,244.48Z"/><path class="cls-7" d="M494.65,381c-1.55,5.82-.47,11.8-1,17.68-.24,2.52.14,5.1-.92,7.77-2.88,1-6.27,0-9.18,1.52h-1.07l-3.75-.31c-.51-6.48-1-12.88-1.51-19.28a319.06,319.06,0,0,0-2.89-37.66A176.53,176.53,0,0,0,472.06,382c-1.48,5.47-.54,11.08-1,16.61-.23,2.52,0,5.08-1,7.6-2.54,1.26-5.76-.28-8.17,1.73l-1.89,0c-3.32-.81-4.14-3-4.27-6.27-.22-5.56-1.12-11.1-1.74-16.66-.38-5.09-1-10.18-1.08-15.28-.29-21.36,1.45-42.53,6.81-63.29a16.31,16.31,0,0,0,6.54.89c11.56-.22,23.15.65,34.68-1-.81,1.58-2.55.47-3.73,1.36-.89,3.32.21,6.68.77,9.95,2.68,15.74-1.27,31.1-2.52,46.6C494.93,369.83,494.66,375.4,494.65,381Z"/><path class="cls-8" d="M500.87,306.32c-11.53,1.68-23.12.81-34.68,1a16.31,16.31,0,0,1-6.54-.89c-2-.86-4.32-.68-6-2.12-.68-3,1-6-.68-9.51l-8.55,11.38c-2.16,2.2-4.09.75-6-.4a.73.73,0,0,0-.8-.45c-.93-1.44,0-2.6.63-3.75,8.52-14.63,13.55-30.59,18-46.77.24,1.57,1,2.46,2.73,2.24,5.56-.68,11.26-.78,16.67-2.09,6.35-1.52,12.42-4.66,19,.37.2-2.37.32-3.87.45-5.38,19.69,15.26,15.48,13.18,38.4,5.76,1.75-.57,3.29-1.88,5.3-1.59a7.7,7.7,0,0,0,2.12,3.89c-.9,2.79-3.69,3.33-5.75,4.66a77.38,77.38,0,0,1-8.46,4.68c-9.09,4.41-18.08,12.17-28.16-.93-1,12,.69,21.61,1.79,31.28C500.66,300.59,501.32,303.42,500.87,306.32Z"/><path class="cls-5" d="M462.26,216.13c1.61.07,2.27-1.16,3.11-2.21,6.53-8.11,14.45-8.36,21.86-.73,3.49,8.18,3.44,17.26,6.46,25.56a1.66,1.66,0,0,0,.12.88L495.1,250c-.13,1.51-.25,3-.45,5.38-6.55-5-12.62-1.89-19-.37-5.41,1.31-11.11,1.41-16.67,2.09-1.77.22-2.49-.67-2.73-2.24,5.44-7.73,5.29-16.47,4.46-25.28C460.31,224.94,463.62,220.81,462.26,216.13Zm8.05,3.18c-3.4,3.4-2.81,7.71-1.64,11.45,1,3.23,3.2,7.27,7,7.28a9.62,9.62,0,0,0,8.35-6c1.47-3.67,2.7-7.77.48-11.79,1-.8,1-1.64.07-2.48-2.77-2.62-11.8-2.47-14.59.29C469.81,218.22,470.18,218.88,470.31,219.31Z"/><path class="cls-9" d="M186.71,225.07c0-4.16,1.32-8.24.74-12.43-.22-1.65.14-3.08,1.86-3.72a4.11,4.11,0,0,0,2.57-2.24c1.8-4,7.05-6.79,11.49-6.14,1,5.49,5,2.26,6.45,1.41,4.88-2.79,7.6-1.61,9.33,3.36a2.62,2.62,0,0,0,.83,1.27c8.75,5.78,5.46,14,3.67,21.34-.68,2.84-4.69,4-7.93,4.52-.88-1.66-3,0-4-1.44a2.85,2.85,0,0,0,.66-2.83c1.74-2.94.77-6.66,2.32-8.65-2-6.63-3.7-13.19-13-10.6-2,6.32-7.78,12.61-2.36,20.51-.65,3.19-5.07,4.43-7.53,1.38C190.19,228.8,187.31,227.88,186.71,225.07Z"/><path class="cls-10" d="M105,221.81c-5.22-6.43-5.61-14.13-.8-19.54,2.56-2.88,5.6-4.46,9.42-1.87,9.82-8.39,21.27.1,22.87,9.69.86,5.17,1.6,10.37,2.43,15.81-4.91-.08-8.66-2.62-12.37-5.31-2,.11-2.19,3.12-4.44,2.72,2.71-4.39,1.11-7.58-2.55-10.55a22.82,22.82,0,0,1-5.84-8,18.67,18.67,0,0,0-6.12,13.29C107.55,219.58,108.25,222.26,105,221.81Z"/><path d="M277.4,228.52c-2.87-3.31-4.64-7-4.53-11.55a10.35,10.35,0,0,0-4-8.45c-2.1-1.76-3.15-4.27-1.78-6.87s3.92-1.81,6.35-1.7c7.32.33,14,1.84,19.25,7.56,1.09,1.18,3.44,1.23,5.22,1.76,8.18,2.45,10.94,11.09,5.66,17.8-1.26,1.6-2.58,3.16-3.87,4.73-1.89-1.1-.85-2.76-.64-4.12.65-4.2-1.23-6.91-4.87-8.52a18.79,18.79,0,0,0-10.47-1.35c-3.53.49-4.88,2.48-5.06,5.86C278.58,225.31,280.07,227.51,277.4,228.52Z"/><path class="cls-11" d="M277.4,228.52c2.67-1,1.18-3.21,1.27-4.85.18-3.38,1.53-5.37,5.06-5.86a18.79,18.79,0,0,1,10.47,1.35c3.64,1.61,5.52,4.32,4.87,8.52-.21,1.36-1.25,3,.64,4.12-1.77,2.19-3.39,4.46-6.56,4.88-2.66.35-2.58,2.09-1.57,4-3.92,4-5.4,4.05-8.42.09C284.81,235,280.18,232.21,277.4,228.52Z"/><path class="cls-12" d="M199.33,229.43c-5.42-7.9.37-14.19,2.36-20.51,9.32-2.59,11.06,4,13,10.6-1.55,2-.58,5.71-2.32,8.65-2.88.62-5.39,1.58-4.79,5.34-.12,1.69-.14,3.54-2.33,3.86s-3.19-1.39-4-3.07C200.65,232.66,203,229.87,199.33,229.43Z"/><path class="cls-13" d="M105,221.81c3.24.45,2.54-2.23,2.6-3.72a18.67,18.67,0,0,1,6.12-13.29,22.82,22.82,0,0,0,5.84,8c3.66,3,5.26,6.16,2.55,10.55L114,230.57c-1.18.43-1.2,1.5-1.34,2.48-.28,1.84-1,3.45-3.12,3.18s-4-2-3.45-4.16c.56-2.41-.24-2.88-2.22-2.89l2.58-1.46C106.81,225.59,104.46,224,105,221.81Z"/><path class="cls-14" d="M370,219.05c.09-3.68-1.47-7.29-.44-11,2.19-2.1,4.74-2.59,7.77-2.49a16.79,16.79,0,0,1,13.89,7.58c.53,1.91-1.07,3.38-1.08,5.18-1.74.47-2.7,3.53-4.64,2.31-4.68-3-8.69-2.93-11.83,1.45C371.28,221.81,371.7,219.28,370,219.05Z"/><path class="cls-15" d="M391.18,213.13a16.79,16.79,0,0,0-13.89-7.58c-3-.1-5.58.39-7.77,2.49-2.94-6.4-1.73-8.7,4.93-9.66,3.73-.54,7.4-1.28,11.09.25C391.56,201.13,393.9,207.07,391.18,213.13Z"/><path class="cls-15" d="M370,219.05c1.74.23,1.32,2.76,3.67,3,3.14-4.38,7.15-4.42,11.83-1.45,1.94,1.22,2.9-1.84,4.64-2.31,2.09,5.88,1,8.25-5.09,11.05l-8.26.12C371.33,228.06,369.3,224.43,370,219.05Z"/><path class="cls-16" d="M437.63,305.36a.73.73,0,0,1,.8.45c.2,3.08-.06,6-3.17,7.69-4.4.94-6.88-1.26-8.35-5.12a3.41,3.41,0,0,1,3.26-3.28C432.64,305.8,435,310.21,437.63,305.36Z"/><path class="cls-17" d="M337.8,294c1.95.21,3.09,1.49,4,3.05-1.11,5-4.32,6.87-9.22,6.27-2.62-3.31,1.86-4.76,1.92-7.37Z"/><path class="cls-18" d="M161,285.71l1.33,2.34c-.64,4.27-3,4.67-6.34,2.79-1.28-.72-2.28-2-3.92-2,1.13-1.68,2.91-2.93,3.3-5.08Z"/><path class="cls-15" d="M376.75,229.48l8.26-.12c.08.32.14.63.19.94l.06,2.36c-3.29,5.1-5.39,5.08-8.52-.08,0-.4,0-.81,0-1.21C376.71,230.74,376.73,230.11,376.75,229.48Z"/><path class="cls-19" d="M271.61,244.48c-.23-1.57-.45-3.13-.68-4.69,3.59-1.16,7.23-3.06,10.47.73C277.85,241.12,275.24,244.07,271.61,244.48Z"/><path class="cls-20" d="M52.45,283.74l1.85,4.14c-3.1.27-6.22,3.23-10.08-.05C47.28,286.07,48.91,283.16,52.45,283.74Z"/><path class="cls-21" d="M540.92,258a7.7,7.7,0,0,1-2.12-3.89,2.7,2.7,0,0,1,.56-.82c2.18-1.55,5.37-3.43,6.94-1.17,1.81,2.61-2.52,3-3.79,4.7A6.85,6.85,0,0,1,540.92,258Z"/><path class="cls-11" d="M334.53,295.91c-.06,2.61-4.54,4.06-1.92,7.37-2.67-.12-3.68-2.84-5.86-3.72,1.94-1,2.69-3.05,4.07-4.54Z"/><path class="cls-22" d="M228,315.71c1.95,17.13-3.22,33.32-6.57,49.75a62.91,62.91,0,0,0-1.72,14.66c-1,7.62-2.07,15.24-3,22.87-.2,1.69-.14,3.38-1.09,4.88l-5.09,0c-2.14-.28-2.11-1.91-2-3.44.4-6.78-.86-13.45-1.14-20.18q-1.11-21.33-2.21-42.64l-1.5,0a136.4,136.4,0,0,0-5.44,43.66c-.51,5.53-1.37,11-1,16.63.08,1.47-.24,2.71-2,3H190c-4.65-2.73-2.35-7.87-4-11.67-.77-1.8-.8-3.92-1.16-5.89-.91-11.46-3.6-22.68-3.17-34.34.48-12.89,1.42-25.66,4.18-38.26,11.93,3.22,24,.16,36,.82C223.91,315.7,226,315.67,228,315.71Z"/><path class="cls-1" d="M264.91,380.19q-2.28-21-4.54-42c-.36-3.38-.57-6.77-.86-10.15,15.57-2.33,31.15-1.31,46.72-.08a5.56,5.56,0,0,1,1.77.86c-2.21,4.84-1,10.07-1.52,15.09-1.26,12-1.65,24.15-2.39,36.23l-2.31,34.93c-2,1.06-5-1.52-6.41,1.75q-2.92-15.9-5.88-31.79c-.25-1.32-.7-2.59-1.05-3.89q-2.65-16.38-5.3-32.77l-1.35,0q-1.29,14.81-2.6,29.62-1.47,12.3-2.94,24.6c-.42,3.53-.82,7.07-1.22,10.6-2-.57-4.38.58-6.14-1.25Q266.91,396.07,264.91,380.19Z"/><path class="cls-23" d="M111.87,404.75l7.67-1.15c3,2.83,2.48,10.1-.92,11.63-2.78,1.25-5.73,2.13-8.57,3.27-3.26,1.3-4.47,0-4.29-3.21.68-1.34,2.08-1.68,3.26-2.31,2,.28,3.35-.06,2.8-2.63C111.42,408.51,110.08,406.59,111.87,404.75Z"/><path class="cls-23" d="M109,413c-1.18.63-2.58,1-3.26,2.31-2.12,1.38-4.2,2.8-6.35,4.12-1.27.78-2.69,1.84-3.94,0s-.53-3.15,1.22-4.18c1-.59,2-1.27,2.84-1.84.38-3-2.82-4.74-2.06-7.61,3.09-1,5.67-3.55,9.26-3A41.13,41.13,0,0,1,109,413Z"/><path class="cls-24" d="M459.93,408l1.89,0a14.43,14.43,0,0,1,2.77,2.81c.86,1.53,1.3,3.55-1.22,3.93-3.29.49-6.51,1.82-10.26,1.41C453.15,411.15,458.09,410.83,459.93,408Z"/><path class="cls-25" d="M482.45,408h1.07c.07,2.78,5.84,3,3.37,6.5-2,2.76-5.73,1.13-8.66,1.59a13.51,13.51,0,0,1-2.86-.15c-1.06-2.66.52-3.32,2.3-4.37S482.38,411.12,482.45,408Z"/><path class="cls-24" d="M366.48,411.34c2.27,1.52,4.8.36,7.18.71,1,5.34-4.16,4.79-7.14,6.82a4.17,4.17,0,0,1-4.3.29,1.58,1.58,0,0,1-1-1.46,4.58,4.58,0,0,1,1.14-3.1A11,11,0,0,1,366.48,411.34Z"/><path class="cls-24" d="M387.34,415.84c-1.14-2.73-.38-4,2.72-3.84,1.38.07,3,.63,4.19-.65a7,7,0,0,1,3.55,2.93,4.13,4.13,0,0,1,.78,1.62c.52,2.28,0,3.7-3,3.39a7.34,7.34,0,0,1-2.25-.64C391.29,417.71,389.44,416.79,387.34,415.84Z"/><path class="cls-26" d="M196.14,409.91a5.48,5.48,0,0,1,2,3.77l-9.51,5.93c-2.13-4.15,1.61-6.09,2.39-8.82Z"/><path class="cls-27" d="M295.37,416.86c1.4-3.27,4.4-.69,6.41-1.75l1.66,1.2c1.4,1,4.46,1.56,2.84,4.78-1,2-3,.9-4.35.56C299.3,421,295.53,421.19,295.37,416.86Z"/><path class="cls-28" d="M215.65,412a4.44,4.44,0,0,1,.56,4.94l-8.05.53c-1.15.08-2.55.57-3-1.05-.38-1.39.47-2.18,1.71-2.71s2.44-1.22,3.65-1.84Z"/><path class="cls-29" d="M268.89,411.94c1.76,1.83,4.13.68,6.14,1.25-.61,3.34-.62,3.42-6.74,5.43a9.17,9.17,0,0,1-.9.24c-1,.23-1.11.23-1.11.23a1.71,1.71,0,0,1-.59-.11,2,2,0,0,1-1-2.77l.55-1.12A7.46,7.46,0,0,1,268.89,411.94Z"/><path class="cls-12" d="M196.14,409.91l-5.15.88c0-2,.26-4.07-1-5.88l5.22,0C195.53,406.59,195.83,408.25,196.14,409.91Z"/><path class="cls-12" d="M215.65,412l-5.13-.13c0-1.32,0-2.63,0-3.95l5.09,0C215.64,409.23,215.64,410.6,215.65,412Z"/><path class="cls-30" d="M104.9,393.51l5.24,0q.87,5.64,1.73,11.27c-1.79,1.84-.45,3.76-.05,5.6.55,2.57-.78,2.91-2.8,2.63a41.13,41.13,0,0,0-2.29-10.22A21.2,21.2,0,0,1,104.9,393.51Z"/><path class="cls-31" d="M376.74,232.58c3.13,5.16,5.23,5.18,8.52.08,4.69-.27,5.69,2.64,5.82,6.53.32,9.38.57,18.77.71,28.12.21,14.49,2.82,28.42,6.36,42.3.33,1.31.49,2.66.9,4.88-12.57-.53-24.6-3.84-36.88-3.08-1.82-4.22,0-7.88.33-11.47,1.19-11.49,1.16-23.13,4.13-34.41,2.47-9.38,4.88-18.78,7.4-28.14C374.51,235.61,375.07,233.75,376.74,232.58Z"/><path class="cls-21" d="M444.46,306.21c-2.89,2.65-4.69,6.68-9.2,7.29,3.11-1.72,3.37-4.61,3.17-7.69C440.37,307,442.3,308.41,444.46,306.21Z"/><path class="cls-21" d="M484.47,220.26c2.22,4,1,8.12-.48,11.79a9.62,9.62,0,0,1-8.35,6c-3.77,0-5.95-4-7-7.28-1.17-3.74-1.76-8,1.64-11.45C475.2,217.09,479.9,217.59,484.47,220.26Z"/><path class="cls-32" d="M484.47,220.26c-4.57-2.67-9.27-3.17-14.16-.95-.13-.43-.5-1.09-.36-1.24,2.79-2.76,11.82-2.91,14.59-.29C485.44,218.62,485.51,219.46,484.47,220.26Z"/></g></g></svg>