<svg width="44" height="44" viewBox="0 0 44 44" fill="none" xmlns="http://www.w3.org/2000/svg">
<g clip-path="url(#clip0)">
<circle cx="25" cy="25" r="25" fill="#FFB929"/>
<path d="M28.5571 11.7061H15.4431C13.3499 11.7061 11.6469 13.409 11.6469 15.5022V28.6162C11.6469 30.7094 13.3499 32.4129 15.4431 32.4129H28.5571C30.6503 32.4129 32.3537 30.7099 32.3537 28.6162V15.5022C32.3537 13.409 30.6508 11.7061 28.5571 11.7061ZM22.0001 28.876C18.2417 28.876 15.1838 25.8181 15.1838 22.0592C15.1838 18.3008 18.2417 15.2429 22.0001 15.2429C25.759 15.2429 28.8169 18.3008 28.8169 22.0592C28.8169 25.8176 25.7585 28.876 22.0001 28.876ZM29.036 16.6522C28.1463 16.6522 27.4228 15.9287 27.4228 15.0395C27.4228 14.1502 28.1463 13.4267 29.036 13.4267C29.9253 13.4267 30.6488 14.1502 30.6488 15.0395C30.6488 15.9287 29.9253 16.6522 29.036 16.6522Z" fill="black"/>
<path d="M22 18.1235C19.8303 18.1235 18.0636 19.8893 18.0636 22.0589C18.0636 24.2296 19.8303 25.9958 22 25.9958C24.1706 25.9958 25.9358 24.2296 25.9358 22.0589C25.9358 19.8898 24.1701 18.1235 22 18.1235Z" fill="black"/>
<path d="M22 0C9.85022 0 0 9.85022 0 22C0 34.1498 9.85022 44 22 44C34.1498 44 44 34.1498 44 22C44 9.85022 34.1498 0 22 0ZM35.2336 28.6163C35.2336 32.2983 32.239 35.2929 28.557 35.2929H15.443C11.7615 35.2929 8.76637 32.2983 8.76637 28.6163V15.5023C8.76637 11.8209 11.7615 8.82569 15.443 8.82569H28.557C32.239 8.82569 35.2336 11.8209 35.2336 15.5023V28.6163Z" fill="black"/>
</g>
<defs>
<clipPath id="clip0">
<rect width="44" height="44" fill="white"/>
</clipPath>
</defs>
</svg>
