<svg width="40" height="40" viewBox="0 0 40 40" fill="none" xmlns="http://www.w3.org/2000/svg">
<g style="mix-blend-mode:luminosity">
<path d="M25.9607 10.6426H14.0389C12.136 10.6426 10.5878 12.1907 10.5878 14.0936V26.0155C10.5878 27.9184 12.136 29.467 14.0389 29.467H25.9607C27.8636 29.467 29.4122 27.9188 29.4122 26.0155V14.0936C29.4122 12.1907 27.8641 10.6426 25.9607 10.6426ZM19.9998 26.2517C16.5831 26.2517 13.8031 23.4717 13.8031 20.0546C13.8031 16.6378 16.5831 13.8579 19.9998 13.8579C23.417 13.8579 26.1969 16.6378 26.1969 20.0546C26.1969 23.4713 23.4166 26.2517 19.9998 26.2517ZM26.3961 15.1391C25.5873 15.1391 24.9295 14.4813 24.9295 13.6729C24.9295 12.8646 25.5873 12.2068 26.3961 12.2068C27.2045 12.2068 27.8623 12.8646 27.8623 13.6729C27.8623 14.4813 27.2045 15.1391 26.3961 15.1391Z" fill="black"/>
<path d="M20 16.4756C18.0275 16.4756 16.4214 18.0808 16.4214 20.0532C16.4214 22.0265 18.0275 23.6322 20 23.6322C21.9733 23.6322 23.578 22.0265 23.578 20.0532C23.578 18.0812 21.9728 16.4756 20 16.4756Z" fill="black"/>
<path d="M20 0C8.95475 0 0 8.95475 0 20C0 31.0453 8.95475 40 20 40C31.0453 40 40 31.0453 40 20C40 8.95475 31.0453 0 20 0ZM32.0306 26.0148C32.0306 29.3621 29.3081 32.0845 25.9609 32.0845H14.0391C10.6923 32.0845 7.96943 29.3621 7.96943 26.0148V14.093C7.96943 10.7462 10.6923 8.02335 14.0391 8.02335H25.9609C29.3081 8.02335 32.0306 10.7462 32.0306 14.093V26.0148Z" fill="black"/>
</g>
</svg>
