<svg width="40" height="40" viewBox="0 0 40 40" fill="none" xmlns="http://www.w3.org/2000/svg">
<circle cx="20" cy="20" r="20" fill="black"/>
<path d="M25.9608 10.6426H14.0389C12.1361 10.6426 10.5879 12.1907 10.5879 14.0936V26.0155C10.5879 27.9184 12.1361 29.467 14.0389 29.467H25.9608C27.8637 29.467 29.4123 27.9188 29.4123 26.0155V14.0936C29.4123 12.1907 27.8641 10.6426 25.9608 10.6426ZM19.9999 26.2517C16.5831 26.2517 13.8032 23.4717 13.8032 20.0546C13.8032 16.6378 16.5831 13.8579 19.9999 13.8579C23.4171 13.8579 26.197 16.6378 26.197 20.0546C26.197 23.4713 23.4166 26.2517 19.9999 26.2517ZM26.3962 15.1391C25.5873 15.1391 24.9296 14.4813 24.9296 13.6729C24.9296 12.8646 25.5873 12.2068 26.3962 12.2068C27.2046 12.2068 27.8623 12.8646 27.8623 13.6729C27.8623 14.4813 27.2046 15.1391 26.3962 15.1391Z" fill="#FFB929"/>
<path d="M19.9999 16.4756C18.0275 16.4756 16.4214 18.0808 16.4214 20.0532C16.4214 22.0265 18.0275 23.6322 19.9999 23.6322C21.9732 23.6322 23.578 22.0265 23.578 20.0532C23.578 18.0812 21.9728 16.4756 19.9999 16.4756Z" fill="#FFB929"/>
<path d="M20 0C8.95475 0 0 8.95475 0 20C0 31.0453 8.95475 40 20 40C31.0453 40 40 31.0453 40 20C40 8.95475 31.0453 0 20 0ZM32.0306 26.0148C32.0306 29.3621 29.3081 32.0845 25.9609 32.0845H14.0391C10.6923 32.0845 7.96943 29.3621 7.96943 26.0148V14.093C7.96943 10.7462 10.6923 8.02335 14.0391 8.02335H25.9609C29.3081 8.02335 32.0306 10.7462 32.0306 14.093V26.0148Z" fill="#FFB929"/>
</svg>
