<svg width="44" height="44" viewBox="0 0 44 44" fill="none" xmlns="http://www.w3.org/2000/svg">
<g clip-path="url(#clip0)">
<path d="M22 43.999C34.1503 43.999 44 34.1493 44 21.999C44 9.84876 34.1503 -0.000976562 22 -0.000976562C9.84974 -0.000976562 0 9.84876 0 21.999C0 34.1493 9.84974 43.999 22 43.999Z" fill="black"/>
<path d="M35.1449 23.7698V32.8399H29.8862V24.3777C29.8862 22.2529 29.127 20.8019 27.223 20.8019C25.77 20.8019 24.9068 21.7788 24.5257 22.7247C24.3872 23.0627 24.3515 23.5322 24.3515 24.0063V32.8396H19.0925C19.0925 32.8396 19.1631 18.5073 19.0925 17.0237H24.3519V19.265C24.3413 19.2826 24.3264 19.2999 24.317 19.3167H24.3519V19.265C25.0508 18.1896 26.2971 16.6523 29.0913 16.6523C32.551 16.6523 35.1449 18.9128 35.1449 23.7698ZM13.5911 9.3999C11.7923 9.3999 10.6154 10.5807 10.6154 12.1322C10.6154 13.6506 11.7581 14.8656 13.5221 14.8656H13.5562C15.3904 14.8656 16.5309 13.6506 16.5309 12.1322C16.496 10.5807 15.3904 9.3999 13.5911 9.3999ZM10.9279 32.8399H16.185V17.0237H10.9279V32.8399Z" fill="#FFB929"/>
</g>
<defs>
<clipPath id="clip0">
<rect width="44" height="44" fill="white"/>
</clipPath>
</defs>
</svg>
