<svg width="40" height="40" viewBox="0 0 40 40" fill="none" xmlns="http://www.w3.org/2000/svg">
<g clip-path="url(#clip0)">
<path d="M20 39.999C31.0457 39.999 40 31.0447 40 19.999C40 8.95333 31.0457 -0.000976562 20 -0.000976562C8.95431 -0.000976562 0 8.95333 0 19.999C0 31.0447 8.95431 39.999 20 39.999Z" fill="#FFB929"/>
<path d="M31.9499 21.6085V29.8541H27.1693V22.1611C27.1693 20.2295 26.4791 18.9104 24.7482 18.9104C23.4273 18.9104 22.6426 19.7984 22.2961 20.6584C22.1702 20.9657 22.1378 21.3924 22.1378 21.8235V29.8537H17.3568C17.3568 29.8537 17.421 16.8244 17.3568 15.4756H22.1381V17.5132C22.1285 17.5292 22.1149 17.5449 22.1064 17.5602H22.1381V17.5132C22.7734 16.5356 23.9065 15.138 26.4466 15.138C29.5919 15.138 31.9499 17.193 31.9499 21.6085ZM12.3556 8.54492C10.7202 8.54492 9.65033 9.6184 9.65033 11.0288C9.65033 12.4092 10.6892 13.5137 12.2928 13.5137H12.3239C13.9913 13.5137 15.0281 12.4092 15.0281 11.0288C14.9963 9.6184 13.9913 8.54492 12.3556 8.54492ZM9.93447 29.8541H14.7136V15.4756H9.93447V29.8541Z" fill="black"/>
</g>
<defs>
<clipPath id="clip0">
<rect width="40" height="40" fill="white"/>
</clipPath>
</defs>
</svg>
