<svg width="361" height="78" viewBox="0 0 361 78" fill="none" xmlns="http://www.w3.org/2000/svg">
<path d="M59 29.5C59 35.3345 57.2699 41.0381 54.0284 45.8893C50.7868 50.7406 46.1796 54.5216 40.7892 56.7544C35.3987 58.9872 29.4673 59.5714 23.7448 58.4332C18.0224 57.2949 12.766 54.4853 8.64036 50.3596C4.51471 46.234 1.70511 40.9776 0.566847 35.2552C-0.571416 29.5327 0.0127818 23.6013 2.24557 18.2108C4.47835 12.8204 8.25944 8.21315 13.1107 4.97164C17.9619 1.73014 23.6655 0 29.5 0C37.3239 0 44.8273 3.10803 50.3596 8.64035C55.892 14.1727 59 21.6761 59 29.5Z" fill="#F39DC0"/>
<path d="M22.4228 34.9627C24.106 34.9627 25.7514 34.4633 27.1507 33.5278C28.55 32.5923 29.6403 31.2627 30.2836 29.7072C30.927 28.1518 31.0944 26.4405 30.7647 24.7899C30.4351 23.1392 29.6231 21.6235 28.4317 20.4345C27.2402 19.2456 25.7228 18.4368 24.0715 18.1105C22.4202 17.7843 20.7092 17.9553 19.1551 18.6018C17.601 19.2484 16.2737 20.3415 15.3411 21.7427C14.4085 23.144 13.9125 24.7904 13.916 26.4736C13.9172 27.5896 14.1381 28.6944 14.5663 29.7249C14.9944 30.7555 15.6213 31.6917 16.4113 32.4799C17.2012 33.2682 18.1386 33.8932 19.1701 34.3192C20.2015 34.7452 21.3068 34.9638 22.4228 34.9627Z" stroke="white" stroke-width="1.8" stroke-miterlimit="10"/>
<path d="M33.4443 18.2761C34.62 17.9407 35.8546 17.8654 37.0623 18.0555C38.2631 18.2405 39.4104 18.6804 40.4271 19.3455C41.4438 20.0106 42.3065 20.8856 42.957 21.9117C43.6057 22.939 44.0271 24.0931 44.1928 25.2967C44.3585 26.5003 44.2648 27.7254 43.9179 28.8897C43.5711 30.054 42.979 31.1307 42.1817 32.0473C41.3843 32.964 40.4 33.6994 39.2949 34.2041C38.1858 34.7057 36.9824 34.9644 35.7652 34.963" stroke="white" stroke-width="1.8" stroke-linecap="round" stroke-linejoin="round"/>
<path d="M10.6421 41.0861C11.9713 39.198 13.735 37.6571 15.7845 36.5935C17.834 35.5298 20.1092 34.9746 22.4183 34.9746C24.7273 34.9746 27.0025 35.5298 29.052 36.5935C31.1016 37.6571 32.8653 39.198 34.1944 41.0861" stroke="white" stroke-width="1.8" stroke-linecap="round" stroke-linejoin="round"/>
<path d="M35.7563 34.9619C38.065 34.9631 40.3396 35.5192 42.3883 36.5835C44.437 37.6478 46.1998 39.189 47.5281 41.0772" stroke="white" stroke-width="1.8" stroke-linecap="round" stroke-linejoin="round"/>
<path d="M118.71 45.4753L93 48.1853C92.2452 48.2713 91.4807 48.1967 90.7568 47.9665C90.0328 47.7363 89.3657 47.3557 88.7991 46.8496C88.2326 46.3435 87.7794 45.7233 87.4693 45.0298C87.1593 44.3362 86.9993 43.585 87 42.8253V13.0953C87.0012 11.7974 87.4698 10.5433 88.32 9.56261C89.1703 8.58195 90.3453 7.94036 91.63 7.75528L117.38 4.05528C118.145 3.94493 118.924 4.00021 119.665 4.21738C120.407 4.43455 121.093 4.80854 121.677 5.314C122.261 5.81946 122.73 6.44459 123.051 7.14702C123.373 7.84946 123.539 8.61279 123.54 9.38528V40.1053C123.54 41.4388 123.047 42.7252 122.155 43.7166C121.263 44.7081 120.036 45.3345 118.71 45.4753Z" fill="#3FC9C8"/>
<path d="M105.43 38.0754C107.683 38.0694 109.885 37.3958 111.755 36.1395C113.626 34.8833 115.083 33.1008 115.941 31.0172C116.799 28.9336 117.021 26.6424 116.577 24.433C116.134 22.2236 115.046 20.1951 113.45 18.6038C111.855 17.0125 109.824 15.9297 107.613 15.4923C105.402 15.0548 103.112 15.2823 101.031 16.146C98.9492 17.0097 97.1705 18.4709 95.9192 20.345C94.6679 22.219 94 24.4219 94 26.6754C94 28.175 94.2959 29.6598 94.8706 31.0449C95.4454 32.43 96.2878 33.688 97.3496 34.747C98.4114 35.806 99.6716 36.6451 101.058 37.2162C102.445 37.7873 103.93 38.0793 105.43 38.0754V38.0754Z" stroke="white" stroke-width="1.8" stroke-miterlimit="10"/>
<path d="M94.6699 22.875H116.18" stroke="white" stroke-width="1.8" stroke-linecap="round" stroke-linejoin="round"/>
<path d="M94.6699 30.4756H116.18" stroke="white" stroke-width="1.8" stroke-linecap="round" stroke-linejoin="round"/>
<path d="M105.43 37.775C108.05 37.775 110.18 32.775 110.18 26.675C110.18 20.575 108.05 15.585 105.43 15.585C102.81 15.585 100.68 20.585 100.68 26.675C100.68 32.765 102.8 37.775 105.43 37.775Z" stroke="white" stroke-width="1.8" stroke-miterlimit="10"/>
<path d="M197.822 78H157.569C156.091 77.9977 154.675 77.409 153.631 76.3633C152.586 75.3176 152 73.9003 152 72.4226L152 32.0645C152 30.6636 152.527 29.3138 153.476 28.2837C154.426 27.2535 155.728 26.6184 157.124 26.5045L200.01 23.0186C200.807 22.9533 201.61 23.0604 202.362 23.3326C203.115 23.6048 203.8 24.0358 204.371 24.5963C204.942 25.1568 205.386 25.8337 205.673 26.581C205.959 27.3283 206.082 28.1285 206.031 28.9272L203.417 72.7537C203.326 74.1695 202.7 75.4977 201.666 76.4687C200.632 77.4398 199.267 77.981 197.848 77.9826L197.822 78Z" fill="#F46D36"/>
<path d="M186.92 39.8555H167.835C166.198 39.8555 164.872 41.1821 164.872 42.8185V63.8123C164.872 65.4488 166.198 66.7753 167.835 66.7753H186.92C188.556 66.7753 189.883 65.4488 189.883 63.8123V42.8185C189.883 41.1821 188.556 39.8555 186.92 39.8555Z" stroke="white" stroke-width="1.8"/>
<path d="M174.519 37.084H188.837C189.339 37.084 189.835 37.1827 190.298 37.3745C190.761 37.5664 191.182 37.8475 191.536 38.202C191.891 38.5564 192.172 38.9772 192.364 39.4403C192.556 39.9034 192.654 40.3998 192.654 40.901V63.3328" stroke="white" stroke-width="1.8" stroke-linecap="round"/>
<path d="M170.946 45.0928H183.6" stroke="white" stroke-width="1.8" stroke-linecap="round"/>
<path d="M170.946 50.4961H183.6" stroke="white" stroke-width="1.8" stroke-linecap="round"/>
<path d="M170.946 55.8994H183.6" stroke="white" stroke-width="1.8" stroke-linecap="round"/>
<path d="M170.946 61.3027H183.6" stroke="white" stroke-width="1.8" stroke-linecap="round"/>
<path d="M273.422 56.6141L241.783 58.3782C240.513 58.4536 239.264 58.0271 238.306 57.1907C237.347 56.3542 236.756 55.1747 236.658 53.9062L234.012 17.2041C233.965 16.5383 234.055 15.8698 234.278 15.2405C234.5 14.6111 234.85 14.0344 235.305 13.5461C235.76 13.0579 236.311 12.6686 236.923 12.4026C237.536 12.1366 238.196 11.9995 238.863 12H273.149C274.435 12 275.669 12.5111 276.579 13.4209C277.489 14.3307 278 15.5646 278 16.8513V51.7628C278 53.0028 277.526 54.1959 276.675 55.0977C275.824 55.9996 274.66 56.5421 273.422 56.6141Z" fill="#FFB929"/>
<path d="M248.751 38.3993C249.533 38.3993 250.297 38.1675 250.947 37.7333C251.597 37.2991 252.103 36.6819 252.402 35.9599C252.701 35.2378 252.78 34.4433 252.627 33.6768C252.475 32.9102 252.098 32.2061 251.546 31.6535C250.993 31.1008 250.289 30.7245 249.522 30.572C248.756 30.4196 247.961 30.4978 247.239 30.7969C246.517 31.096 245.9 31.6025 245.466 32.2523C245.032 32.9021 244.8 33.6661 244.8 34.4477C244.799 34.9669 244.9 35.4813 245.098 35.9613C245.296 36.4412 245.587 36.8773 245.955 37.2445C246.322 37.6116 246.758 37.9027 247.238 38.1008C247.718 38.299 248.232 38.4004 248.751 38.3993V38.3993Z" stroke="white" stroke-width="1.8" stroke-linecap="round" stroke-linejoin="round"/>
<path d="M262.582 47.2821C263.364 47.2821 264.128 47.0503 264.777 46.6161C265.427 46.1819 265.934 45.5648 266.233 44.8427C266.532 44.1206 266.61 43.3261 266.458 42.5596C266.305 41.793 265.929 41.0889 265.376 40.5363C264.824 39.9837 264.119 39.6073 263.353 39.4548C262.586 39.3024 261.792 39.3806 261.07 39.6797C260.348 39.9788 259.731 40.4853 259.296 41.1351C258.862 41.7849 258.63 42.5489 258.63 43.3305C258.629 43.8497 258.731 44.3641 258.929 44.8441C259.127 45.324 259.418 45.7601 259.785 46.1273C260.152 46.4944 260.588 46.7855 261.068 46.9836C261.548 47.1818 262.063 47.2832 262.582 47.2821V47.2821Z" stroke="white" stroke-width="1.8" stroke-linecap="round" stroke-linejoin="round"/>
<path d="M262.582 29.5086C263.364 29.5086 264.128 29.2769 264.777 28.8427C265.427 28.4085 265.934 27.7913 266.233 27.0693C266.532 26.3472 266.61 25.5527 266.458 24.7861C266.305 24.0196 265.929 23.3155 265.376 22.7629C264.824 22.2102 264.119 21.8339 263.353 21.6814C262.586 21.5289 261.792 21.6072 261.07 21.9063C260.348 22.2054 259.731 22.7118 259.296 23.3617C258.862 24.0115 258.63 24.7755 258.63 25.5571C258.629 26.0763 258.731 26.5907 258.929 27.0706C259.127 27.5506 259.418 27.9867 259.785 28.3538C260.152 28.721 260.588 29.012 261.068 29.2102C261.548 29.4084 262.063 29.5098 262.582 29.5086V29.5086Z" stroke="white" stroke-width="1.8" stroke-linecap="round" stroke-linejoin="round"/>
<path d="M259.265 27.7002L252.077 32.2869" stroke="white" stroke-width="1.8" stroke-linecap="round" stroke-linejoin="round"/>
<path d="M252.077 36.583L259.265 41.2049" stroke="white" stroke-width="1.8" stroke-linecap="round" stroke-linejoin="round"/>
<path d="M349.29 74.6051L312.55 73.9967C311.925 73.9863 311.309 73.8494 310.738 73.5943C310.168 73.3392 309.655 72.9711 309.23 72.5123C308.806 72.0535 308.479 71.5134 308.269 70.9247C308.059 70.3361 307.97 69.711 308.009 69.0871L310.433 30.8043C310.504 29.7367 310.941 28.7263 311.672 27.9452C312.404 27.1641 313.383 26.6605 314.443 26.5202L355.802 21.0365C356.513 20.9466 357.235 21.0233 357.911 21.2607C358.587 21.498 359.199 21.8894 359.698 22.404C360.197 22.9185 360.569 23.542 360.785 24.2252C361.001 24.9084 361.055 25.6325 360.943 26.3402L353.934 70.6894C353.756 71.7878 353.189 72.7856 352.336 73.5012C351.484 74.2167 350.403 74.6024 349.29 74.5879" fill="#2E4EA1"/>
<path d="M332.677 56.4492C333.76 56.4492 334.819 56.1279 335.719 55.5259C336.62 54.9239 337.322 54.0683 337.736 53.0674C338.15 52.0664 338.258 50.9651 338.046 49.9028C337.834 48.8405 337.312 47.865 336.545 47.0996C335.779 46.3343 334.802 45.8135 333.74 45.6032C332.677 45.3929 331.576 45.5025 330.576 45.9183C329.575 46.334 328.721 47.0371 328.12 47.9386C327.52 48.8401 327.2 49.8995 327.202 50.9827C327.204 52.4333 327.782 53.8237 328.808 54.8486C329.835 55.8736 331.226 56.4492 332.677 56.4492V56.4492Z" stroke="white" stroke-width="1.8" stroke-linecap="round" stroke-linejoin="round"/>
<path d="M339.934 61.916C337.497 63.533 334.59 64.2898 331.673 64.0662C328.757 63.8427 325.999 62.6516 323.837 60.6819C321.675 58.7123 320.233 56.077 319.739 53.1942C319.245 50.3115 319.728 47.3463 321.111 44.7694C322.495 42.1925 324.699 40.1514 327.375 38.97C330.05 37.7887 333.044 37.5347 335.88 38.2484C338.717 38.9622 341.233 40.6027 343.031 42.9098C344.829 45.2168 345.804 48.0582 345.803 50.9829C345.803 54.0075 344.707 56.458 341.973 56.458C339.24 56.458 338.143 53.9989 338.143 50.9829V45.5078" stroke="white" stroke-width="1.8" stroke-linecap="round" stroke-linejoin="round"/>
</svg>
