<svg width="53" height="39" viewBox="0 0 53 39" fill="none" xmlns="http://www.w3.org/2000/svg">
<path d="M52.264 0.943993C39.976 2.864 26.792 11.952 26.792 25.648C26.792 32.432 30.248 38.832 38.056 38.832C44.072 38.832 47.784 33.584 47.784 27.312C47.784 24.88 47.016 18.608 41.256 18.608C38.952 18.608 36.904 19.632 35.752 21.68H35.496C35.496 12.848 44.584 6.576 52.264 4.656V0.943993ZM25.768 0.943993C13.48 2.864 0.296 11.952 0.296 25.648C0.296 32.432 3.752 38.832 11.56 38.832C17.576 38.832 21.288 33.584 21.288 27.312C21.288 24.88 20.52 18.608 14.76 18.608C12.456 18.608 10.408 19.632 9.256 21.68H9C9 12.848 18.088 6.576 25.768 4.656V0.943993Z" fill="#F39DC0"/>
</svg>
