<svg width="36" height="36" viewBox="0 0 36 36" fill="none" xmlns="http://www.w3.org/2000/svg">
<circle cx="18" cy="18" r="18" fill="black"/>
<path d="M26.0998 10C26.0998 11.704 24.7028 13.1 22.9613 13.1C21.2198 13.1 19.8229 11.704 19.8229 10C19.8229 8.29602 21.2198 6.9 22.9613 6.9C24.7028 6.9 26.0998 8.29602 26.0998 10Z" stroke="white" stroke-width="1.8"/>
<path d="M13.1769 18C13.1769 19.704 11.7799 21.1 10.0385 21.1C8.297 21.1 6.9 19.704 6.9 18C6.9 16.296 8.297 14.9 10.0385 14.9C11.7799 14.9 13.1769 16.296 13.1769 18Z" stroke="white" stroke-width="1.8"/>
<path d="M26.0998 26C26.0998 27.704 24.7028 29.1 22.9613 29.1C21.2198 29.1 19.8229 27.704 19.8229 26C19.8229 24.296 21.2198 22.9 22.9613 22.9C24.7028 22.9 26.0998 24.296 26.0998 26Z" stroke="white" stroke-width="1.8"/>
<line y1="-0.9" x2="8.29709" y2="-0.9" transform="matrix(0.876118 -0.482097 0.489199 0.872172 13.2695 16.3999)" stroke="white" stroke-width="1.8"/>
<line y1="-0.9" x2="8.29597" y2="-0.9" transform="matrix(0.868085 0.496416 -0.503593 0.863941 12.4619 20.3999)" stroke="white" stroke-width="1.8"/>
</svg>
