<svg width="40" height="40" viewBox="0 0 40 40" fill="none" xmlns="http://www.w3.org/2000/svg">
<g clip-path="url(#clip0)">
<path d="M20.0007 39.9996C31.0463 39.9996 40.0005 31.0454 40.0005 19.9998C40.0005 8.95423 31.0463 0 20.0007 0C8.95508 0 0.000854492 8.95423 0.000854492 19.9998C0.000854492 31.0454 8.95508 39.9996 20.0007 39.9996Z" fill="#FFB929"/>
<path d="M32.251 14.3731C31.3939 14.7532 30.472 15.0102 29.5051 15.125C30.4923 14.5336 31.2499 13.5977 31.6075 12.4807C30.6837 13.0287 29.6602 13.4262 28.5717 13.6405C27.6997 12.7118 26.4572 12.1313 25.0815 12.1313C22.4418 12.1313 20.3009 14.2722 20.3009 16.9119C20.3009 17.2866 20.3434 17.6513 20.4254 18.0014C16.4523 17.8021 12.9296 15.899 10.5716 13.0059C10.1602 13.7118 9.92419 14.5336 9.92419 15.4095C9.92419 17.0677 10.7688 18.5315 12.0508 19.3886C11.2675 19.364 10.5299 19.149 9.88568 18.79C9.88533 18.8103 9.88533 18.8306 9.88533 18.8506C9.88533 21.1669 11.5339 23.0988 13.7204 23.5377C13.3196 23.6475 12.8965 23.7056 12.4612 23.7056C12.1524 23.7056 11.8533 23.676 11.5617 23.6204C12.1699 25.5192 13.935 26.9014 16.0274 26.9403C14.391 28.2227 12.33 28.9867 10.0896 28.9867C9.70457 28.9867 9.3231 28.9642 8.94983 28.9197C11.0643 30.2766 13.5778 31.0677 16.2773 31.0677C25.0704 31.0677 29.8791 23.7834 29.8791 17.4655C29.8791 17.2584 29.8744 17.052 29.8652 16.8473C30.8 16.1735 31.6103 15.3318 32.251 14.3731Z" fill="black"/>
</g>
<defs>
<clipPath id="clip0">
<rect width="40" height="40" fill="white"/>
</clipPath>
</defs>
</svg>
