<svg width="40" height="40" viewBox="0 0 40 40" fill="none" xmlns="http://www.w3.org/2000/svg">
<g style="mix-blend-mode:luminosity" clip-path="url(#clip0)">
<path d="M20.0006 39.9996C31.0462 39.9996 40.0004 31.0454 40.0004 19.9998C40.0004 8.95423 31.0462 0 20.0006 0C8.95503 0 0.000801086 8.95423 0.000801086 19.9998C0.000801086 31.0454 8.95503 39.9996 20.0006 39.9996Z" fill="black"/>
<path d="M32.2509 14.3731C31.3938 14.7532 30.4719 15.0102 29.505 15.125C30.4922 14.5336 31.2498 13.5977 31.6074 12.4807C30.6836 13.0287 29.6601 13.4262 28.5716 13.6405C27.6996 12.7118 26.4572 12.1313 25.0814 12.1313C22.4417 12.1313 20.3008 14.2722 20.3008 16.9119C20.3008 17.2866 20.3433 17.6513 20.4253 18.0014C16.4523 17.8021 12.9295 15.899 10.5715 13.0059C10.1601 13.7118 9.92409 14.5336 9.92409 15.4095C9.92409 17.0677 10.7687 18.5315 12.0507 19.3886C11.2674 19.364 10.5298 19.149 9.88559 18.79C9.88523 18.8103 9.88523 18.8306 9.88523 18.8506C9.88523 21.1669 11.5338 23.0988 13.7203 23.5377C13.3196 23.6475 12.8964 23.7056 12.4611 23.7056C12.1523 23.7056 11.8532 23.676 11.5616 23.6204C12.1698 25.5192 13.9349 26.9014 16.0273 26.9403C14.3909 28.2227 12.3299 28.9867 10.0895 28.9867C9.70448 28.9867 9.32301 28.9642 8.94974 28.9197C11.0642 30.2766 13.5777 31.0677 16.2772 31.0677C25.0703 31.0677 29.879 23.7834 29.879 17.4655C29.879 17.2584 29.8744 17.052 29.8651 16.8473C30.7999 16.1735 31.6102 15.3318 32.2509 14.3731Z" fill="white"/>
</g>
<defs>
<clipPath id="clip0">
<rect width="40" height="40" fill="white"/>
</clipPath>
</defs>
</svg>
