<svg width="44" height="44" viewBox="0 0 44 44" fill="none" xmlns="http://www.w3.org/2000/svg">
<g clip-path="url(#clip0)">
<path d="M22.0008 43.9996C34.1509 43.9996 44.0006 34.15 44.0006 21.9998C44.0006 9.84965 34.1509 0 22.0008 0C9.85062 0 0.000976562 9.84965 0.000976562 21.9998C0.000976562 34.15 9.85062 43.9996 22.0008 43.9996Z" fill="black"/>
<path d="M35.4758 15.8107C34.533 16.2287 33.5189 16.5115 32.4553 16.6378C33.5413 15.9871 34.3746 14.9577 34.768 13.7291C33.7518 14.3318 32.6259 14.7691 31.4286 15.0048C30.4694 13.9832 29.1027 13.3447 27.5893 13.3447C24.6857 13.3447 22.3308 15.6997 22.3308 18.6033C22.3308 19.0155 22.3774 19.4167 22.4676 19.8018C18.0973 19.5825 14.2223 17.4892 11.6285 14.3067C11.176 15.0832 10.9163 15.9871 10.9163 16.9507C10.9163 18.7747 11.8454 20.3849 13.2556 21.3277C12.394 21.3006 11.5826 21.0641 10.874 20.6692C10.8736 20.6916 10.8736 20.7139 10.8736 20.7359C10.8736 23.2838 12.687 25.409 15.0921 25.8917C14.6513 26.0125 14.1858 26.0764 13.707 26.0764C13.3674 26.0764 13.0384 26.0439 12.7176 25.9827C13.3866 28.0714 15.3282 29.5918 17.6298 29.6346C15.8298 31.0452 13.5627 31.8856 11.0983 31.8856C10.6748 31.8856 10.2551 31.8609 9.84454 31.8119C12.1705 33.3045 14.9353 34.1747 17.9048 34.1747C27.5772 34.1747 32.8667 26.1619 32.8667 19.2123C32.8667 18.9845 32.8616 18.7574 32.8514 18.5323C33.8797 17.7911 34.7711 16.8652 35.4758 15.8107Z" fill="#FFB929"/>
</g>
<defs>
<clipPath id="clip0">
<rect width="44" height="44" fill="white"/>
</clipPath>
</defs>
</svg>
