<svg width="939" height="954" viewBox="0 0 939 954" fill="none" xmlns="http://www.w3.org/2000/svg">
<path d="M544.721 215.4C606.221 215.4 651.821 169.8 651.821 108C651.821 46.2 606.221 0.599999 544.721 0.599999C482.921 0.599999 437.321 46.2 437.321 108C437.321 169.8 482.921 215.4 544.721 215.4ZM544.421 176.4C508.421 176.4 482.621 147.3 482.621 108C482.621 68.7 508.421 39.3 544.421 39.3C580.421 39.3 606.521 68.7 606.521 108C606.521 147.3 580.421 176.4 544.421 176.4ZM821.389 61.8H779.389V144.6C779.389 163.8 766.489 178.2 748.189 178.2C731.089 178.2 719.089 165 719.089 146.7V61.8H677.389V156C677.389 190.5 699.589 215.4 733.489 215.4C754.189 215.4 770.989 206.4 779.389 192V213H821.389V61.8ZM948.891 96.6V61.8H931.791C913.491 61.8 902.091 68.1 893.991 87V61.8H851.991V213H893.991V139.5C893.991 113.7 903.291 96.6 923.991 96.6H948.891ZM110.586 582H251.286V543H155.886V372H110.586V582ZM332.563 428.4C291.163 428.4 266.563 452.7 264.763 483H301.963C302.563 470.4 311.863 459 330.163 459C347.263 459 357.163 467.7 357.163 480.3C357.163 486.6 353.263 491.4 345.763 491.4H320.263C287.263 491.4 265.063 509.4 265.063 539.1C265.063 564.9 285.163 584.4 314.563 584.4C335.263 584.4 352.063 575.1 357.163 561V582H398.563V484.8C398.563 450.6 370.663 428.4 332.563 428.4ZM325.063 554.1C313.363 554.1 304.963 547.2 304.963 537.3C304.963 525.6 313.963 517.8 326.563 517.8H357.163V519.9C357.163 539.1 345.463 554.1 325.063 554.1ZM443.464 386.1V430.8H414.364V465.6H443.464V527.1C443.464 562.2 465.964 582 500.764 582H525.664V546.9H506.464C492.964 546.9 485.164 540 485.164 525.3V465.6H525.664V430.8H485.164V386.1H443.464ZM646.646 530.7C643.346 543.6 632.246 550.2 615.446 550.2C594.446 550.2 580.946 537 577.946 515.7H686.546C686.846 512.4 687.146 507.9 687.146 502.2C687.146 467.7 665.846 428.4 612.446 428.4C561.146 428.4 537.746 467.7 537.746 506.1C537.746 544.2 564.146 584.4 615.446 584.4C652.646 584.4 681.446 563.4 687.446 530.7H646.646ZM612.446 459C632.546 459 644.246 472.5 645.446 489.3H578.546C582.146 468.3 593.546 459 612.446 459ZM763.93 584.4C799.33 584.4 822.73 565.5 822.73 536.7C822.73 468.3 739.93 503.4 739.93 472.5C739.93 462.9 748.03 457.8 759.73 457.8C771.13 457.8 782.83 464.7 784.63 477.6H820.93C819.43 447.9 794.83 428.4 758.53 428.4C727.63 428.4 704.53 447.3 704.53 474C704.53 537.6 785.83 507.3 785.83 538.2C785.83 546.6 776.83 552.9 763.93 552.9C748.33 552.9 737.83 544.5 736.33 531H700.33C701.83 563.7 727.03 584.4 763.93 584.4ZM863.581 386.1V430.8H834.481V465.6H863.581V527.1C863.581 562.2 886.081 582 920.881 582H945.781V546.9H926.581C913.081 546.9 905.281 540 905.281 525.3V465.6H945.781V430.8H905.281V386.1H863.581ZM82.0273 953.4C129.127 953.4 160.927 928.8 160.927 889.5C160.927 806.4 50.5273 841.8 50.5273 798C50.5273 785.7 61.6273 777.3 79.3273 777.3C99.4273 777.3 112.027 788.1 113.527 804.6H156.427C155.227 764.7 124.627 738.6 79.3273 738.6C36.7273 738.6 6.72734 763.2 6.72734 798C6.72734 880.5 115.627 849 115.627 890.1C115.627 906 102.127 914.4 82.0273 914.4C59.8273 914.4 45.7273 900.9 43.9273 879.6H0.727344C2.52734 924.3 34.3273 953.4 82.0273 953.4ZM202.058 755.1V799.8H172.958V834.6H202.058V896.1C202.058 931.2 224.558 951 259.358 951H284.258V915.9H265.058C251.558 915.9 243.758 909 243.758 894.3V834.6H284.258V799.8H243.758V755.1H202.058ZM376.14 953.4C422.64 953.4 455.94 920.4 455.94 875.4C455.94 830.4 422.64 797.4 376.14 797.4C329.64 797.4 296.34 830.4 296.34 875.4C296.34 920.4 329.64 953.4 376.14 953.4ZM376.14 917.4C353.64 917.4 338.34 900.3 338.34 875.4C338.34 850.2 353.64 833.1 376.14 833.1C398.64 833.1 413.94 850.2 413.94 875.4C413.94 900.3 398.64 917.4 376.14 917.4ZM575.649 834.6V799.8H558.549C540.249 799.8 528.849 806.1 520.749 825V799.8H478.749V951H520.749V877.5C520.749 851.7 530.049 834.6 550.749 834.6H575.649ZM593.858 734.1V778.2H638.258V734.1H593.858ZM595.058 951H637.058V799.8H595.058V951ZM768.814 899.7C765.514 912.6 754.414 919.2 737.614 919.2C716.614 919.2 703.114 906 700.114 884.7H808.714C809.014 881.4 809.314 876.9 809.314 871.2C809.314 836.7 788.014 797.4 734.614 797.4C683.314 797.4 659.914 836.7 659.914 875.1C659.914 913.2 686.314 953.4 737.614 953.4C774.814 953.4 803.614 932.4 809.614 899.7H768.814ZM734.614 828C754.714 828 766.414 841.5 767.614 858.3H700.714C704.314 837.3 715.714 828 734.614 828ZM886.098 953.4C921.498 953.4 944.898 934.5 944.898 905.7C944.898 837.3 862.098 872.4 862.098 841.5C862.098 831.9 870.198 826.8 881.898 826.8C893.298 826.8 904.998 833.7 906.798 846.6H943.098C941.598 816.9 916.998 797.4 880.698 797.4C849.798 797.4 826.698 816.3 826.698 843C826.698 906.6 907.998 876.3 907.998 907.2C907.998 915.6 898.998 921.9 886.098 921.9C870.498 921.9 859.998 913.5 858.498 900H822.498C823.998 932.7 849.198 953.4 886.098 953.4Z" fill="#FFB929" fill-opacity="0.2"/>
</svg>
