<svg width="35" height="35" viewBox="0 0 35 35" fill="none" xmlns="http://www.w3.org/2000/svg">
<g clip-path="url(#clip0)">
<path d="M17.5795 0C17.5701 0.00937754 17.5514 0.00937754 17.5232 0.00937754C8.03315 0.00937754 0.31543 7.7271 0.31543 17.2172C0.31543 21.0901 1.63766 24.8505 4.05707 27.8794L1.55327 33.6935C1.34696 34.1718 1.57202 34.725 2.0409 34.922C2.20969 34.997 2.39724 35.0157 2.57542 34.9876L11.756 33.3747C13.594 34.0405 15.5258 34.3781 17.4763 34.3687C26.9664 34.3687 34.6841 26.651 34.6841 17.1609C34.7029 7.69896 27.0414 0.00937754 17.5795 0ZM17.4857 32.5026C15.6759 32.5026 13.8847 32.1743 12.1874 31.5367C12.028 31.471 11.8592 31.4617 11.6904 31.4898L3.96329 32.8402L6.0076 28.0857C6.14826 27.7575 6.092 27.373 5.85756 27.1011C4.75101 25.8164 3.86952 24.3535 3.2506 22.7687C2.55666 20.9963 2.20032 19.1114 2.20032 17.2078C2.20032 8.74925 9.08344 1.87551 17.5326 1.87551C25.963 1.85675 32.8086 8.67423 32.818 17.1046V17.1609C32.818 25.6288 25.9349 32.5026 17.4857 32.5026Z" fill="black"/>
<path d="M17.5795 0C17.5701 0.00937754 17.5514 0.00937754 17.5232 0.00937754C8.03315 0.00937754 0.31543 7.7271 0.31543 17.2172C0.31543 21.0901 1.63766 24.8505 4.05707 27.8794L1.55327 33.6935C1.34696 34.1718 1.57202 34.725 2.0409 34.922C2.20969 34.997 2.39724 35.0157 2.57542 34.9876L11.756 33.3747C13.594 34.0405 15.5258 34.3781 17.4763 34.3687C26.9664 34.3687 34.6841 26.651 34.6841 17.1609C34.7029 7.69896 27.0414 0.00937754 17.5795 0ZM17.4857 32.5026C15.6759 32.5026 13.8847 32.1743 12.1874 31.5367C12.028 31.471 11.8592 31.4617 11.6904 31.4898L3.96329 32.8402L6.0076 28.0857C6.14826 27.7575 6.092 27.373 5.85756 27.1011C4.75101 25.8164 3.86952 24.3535 3.2506 22.7687C2.55666 20.9963 2.20032 19.1114 2.20032 17.2078C2.20032 8.74925 9.08344 1.87551 17.5326 1.87551C25.963 1.85675 32.8086 8.67423 32.818 17.1046V17.1609C32.818 25.6288 25.9349 32.5026 17.4857 32.5026Z" stroke="black"/>
<path d="M16.7546 13.7568H11.6907C11.1749 13.7568 10.7529 14.1788 10.7529 14.6946C10.7529 15.2104 11.1749 15.6323 11.6907 15.6323H16.7546C17.2703 15.6323 17.6923 15.2104 17.6923 14.6946C17.6923 14.1788 17.2703 13.7568 16.7546 13.7568Z" fill="black"/>
<path d="M23.3188 18.4458H11.6907C11.1749 18.4458 10.7529 18.8678 10.7529 19.3836C10.7529 19.8993 11.1749 20.3213 11.6907 20.3213H23.3188C23.8346 20.3213 24.2566 19.8993 24.2566 19.3836C24.2566 18.8678 23.8346 18.4458 23.3188 18.4458Z" fill="black"/>
</g>
<defs>
<clipPath id="clip0">
<rect width="35" height="35" fill="white"/>
</clipPath>
</defs>
</svg>
