<svg width="35" height="35" viewBox="0 0 35 35" fill="none" xmlns="http://www.w3.org/2000/svg">
<g clip-path="url(#clip0)">
<path d="M17.915 3.54903L9.75775 0.064287C9.35657 -0.10877 8.89246 0.0800195 8.72727 0.481198L4.71549 9.8971C3.68501 12.2727 4.55816 15.0416 6.76858 16.3946L3.37036 24.3238L1.10488 23.3641C0.703699 23.1911 0.239591 23.372 0.0665335 23.7732C-0.106524 24.1743 0.0743997 24.6384 0.475578 24.8115C0.483445 24.8115 0.483445 24.8115 0.491311 24.8194L6.49326 27.368C6.89444 27.5332 7.35854 27.3444 7.52374 26.9433C7.68893 26.5421 7.508 26.0858 7.10682 25.9206L4.82561 24.9531L8.21597 17.0239C8.64074 17.134 9.08125 17.1891 9.52176 17.1891C10.1904 17.1891 10.8512 17.0632 11.4726 16.8115C12.7627 16.3002 13.7931 15.2933 14.328 14.0111L18.3398 4.59525C18.4971 4.1862 18.3161 3.72209 17.915 3.54903ZM12.8728 13.3818C12.0862 15.2304 9.93867 16.0957 8.09011 15.3012C7.19335 14.9236 6.48539 14.1999 6.12354 13.3032C5.7617 12.4064 5.77743 11.3995 6.16288 10.5107L9.86788 1.81846L16.5857 4.68964L12.8728 13.3818Z" fill="black"/>
<path d="M34.9454 31.5998C34.788 31.1829 34.3397 30.9784 33.9306 31.1357L31.6337 32.0246L28.5501 24.001C30.7841 22.711 31.7517 19.9893 30.8392 17.5743L27.1814 8.01683C27.024 7.60778 26.5678 7.41113 26.1666 7.56058L17.8677 10.77C17.4665 10.9273 17.262 11.3836 17.4194 11.7848L21.085 21.3501C22.0211 23.7572 24.5698 25.1259 27.0948 24.5674L30.1784 32.591L27.8736 33.4799C27.4646 33.6372 27.2679 34.0934 27.4174 34.4946C27.5668 34.8958 28.0309 35.1003 28.4321 34.9509L34.497 32.6146C34.8982 32.4573 35.1027 32.001 34.9454 31.5998ZM27.2679 22.8683C25.38 23.5999 23.264 22.6638 22.5324 20.7759L19.1499 11.95L25.9857 9.30689L29.3603 18.125C29.7064 19.0296 29.675 20.0365 29.2817 20.9253C28.8883 21.8142 28.1646 22.5065 27.2679 22.8683Z" fill="black"/>
</g>
<defs>
<clipPath id="clip0">
<rect width="35" height="35" fill="white"/>
</clipPath>
</defs>
</svg>
