<svg width="46" height="46" viewBox="0 0 46 46" fill="none" xmlns="http://www.w3.org/2000/svg">
<path d="M23 0.5C10.58 0.5 0.5 10.58 0.5 23C0.5 35.42 10.58 45.5 23 45.5C35.42 45.5 45.5 35.42 45.5 23C45.5 10.58 35.42 0.5 23 0.5ZM23 7.25C26.735 7.25 29.75 10.265 29.75 14C29.75 17.735 26.735 20.75 23 20.75C19.265 20.75 16.25 17.735 16.25 14C16.25 10.265 19.265 7.25 23 7.25ZM23 39.2C17.375 39.2 12.4025 36.32 9.5 31.955C9.5675 27.4775 18.5 25.025 23 25.025C27.4775 25.025 36.4325 27.4775 36.5 31.955C33.5975 36.32 28.625 39.2 23 39.2Z" fill="#FFB929"/>
</svg>
