<svg width="54" height="54" viewBox="0 0 54 54" fill="none" xmlns="http://www.w3.org/2000/svg">
<path d="M27 4.5C14.58 4.5 4.5 14.58 4.5 27C4.5 39.42 14.58 49.5 27 49.5C39.42 49.5 49.5 39.42 49.5 27C49.5 14.58 39.42 4.5 27 4.5ZM27 11.25C30.735 11.25 33.75 14.265 33.75 18C33.75 21.735 30.735 24.75 27 24.75C23.265 24.75 20.25 21.735 20.25 18C20.25 14.265 23.265 11.25 27 11.25ZM27 43.2C21.375 43.2 16.4025 40.32 13.5 35.955C13.5675 31.4775 22.5 29.025 27 29.025C31.4775 29.025 40.4325 31.4775 40.5 35.955C37.5975 40.32 32.625 43.2 27 43.2Z" fill="#3FC9C8"/>
</svg>
