<svg width="688" height="351" viewBox="0 0 688 351" fill="none" xmlns="http://www.w3.org/2000/svg">
<path d="M127.785 308.62C127.464 308.62 127.163 308.774 126.975 309.033C115.554 324.781 93.5613 348.779 63.4212 349.955C71.1246 341.088 77.7651 327.01 75.999 309.52C75.9474 309.009 75.5174 308.62 75.0041 308.62H37.502C31.9313 308.62 26.8725 308.619 22.3845 308.094C17.9022 307.57 14.0796 306.531 10.9615 304.516C4.80646 300.537 1 292.466 1 275.5V39.9849C1 19.9786 4.04026 10.4493 9.82996 5.77627C12.7262 3.43861 16.4136 2.22865 21.0311 1.61608C25.6612 1.00183 31.1151 1 37.502 1H653.276C658.621 1 663.374 1.00213 667.541 1.61415C671.691 2.2237 675.168 3.42743 677.986 5.76744C683.624 10.4494 687 20.0091 687 39.9849V275.5C687 287.148 685.744 295.318 681.06 300.628C676.405 305.907 668.113 308.62 653.276 308.62H127.785Z" fill="white" stroke="#3FC9C8" stroke-width="2" stroke-linecap="round" stroke-linejoin="round"/>
</svg>
