<svg width="688" height="347" viewBox="0 0 688 347" fill="none" xmlns="http://www.w3.org/2000/svg">
<path d="M560.215 304.485C560.536 304.485 560.837 304.638 561.025 304.898C572.448 320.648 594.441 344.773 624.58 345.955C616.875 337.072 610.235 322.873 612.001 305.384C612.053 304.874 612.483 304.485 612.996 304.485H650.498C656.069 304.485 661.127 304.484 665.615 303.959C670.098 303.434 673.92 302.396 677.039 300.38C683.194 296.401 687 288.331 687 271.364V39.9849C687 19.9786 683.96 10.4493 678.17 5.77627C675.274 3.43861 671.586 2.22865 666.969 1.61608C662.339 1.00183 656.885 1 650.498 1H34.7241C29.3793 1 24.6258 1.00213 20.4589 1.61415C16.3088 2.2237 12.8322 3.42743 10.0143 5.76744C4.37622 10.4494 1 20.0091 1 39.9849V271.364C1 283.013 2.25574 291.182 6.93951 296.493C11.5954 301.772 19.8868 304.485 34.7241 304.485H560.215Z" fill="white" stroke="#F39DC0" stroke-width="2" stroke-linecap="round" stroke-linejoin="round"/>
</svg>
