<svg width="743" height="347" viewBox="0 0 743 347" fill="none" xmlns="http://www.w3.org/2000/svg">
<path d="M661.006 305.377C661.061 304.869 661.49 304.485 662 304.485H702.5C708.514 304.485 713.986 304.484 718.844 303.958C723.698 303.432 727.848 302.389 731.235 300.362C737.903 296.37 742 288.303 742 271.364V39.9849C742 19.9941 738.724 10.4778 732.464 5.79912C729.318 3.44808 725.312 2.23199 720.308 1.6173C715.295 1.00158 709.394 1 702.5 1H37.5C31.731 1 26.5854 1.00184 22.0723 1.61564C17.5716 2.22775 13.7941 3.43828 10.7346 5.79085C4.63867 10.4782 1 20.0257 1 39.9849V271.364C1 283.004 2.35333 291.157 7.40845 296.465C12.4583 301.766 21.4567 304.485 37.5 304.485H605C605.307 304.485 605.598 304.626 605.787 304.868C618.119 320.613 641.917 344.804 674.572 345.957C666.266 337.077 659.097 322.878 661.006 305.377Z" fill="white" stroke="#2E4EA1" stroke-width="2" stroke-linecap="round" stroke-linejoin="round"/>
</svg>
