<svg width="320" height="293" viewBox="0 0 320 293" fill="none" xmlns="http://www.w3.org/2000/svg">
<path d="M59.4347 272.397C59.1148 272.397 58.8141 272.55 58.626 272.809C53.4819 279.883 43.8258 290.389 30.6965 291.498C34.0058 287.269 36.6579 280.975 35.8805 273.296C35.8288 272.786 35.3989 272.397 34.8856 272.397H17.4428C14.8434 272.397 12.5238 272.396 10.4733 272.157C8.42836 271.918 6.74145 271.451 5.38774 270.578C2.76245 268.885 1 265.388 1 257.568V18.5498C1 9.26159 2.43044 5.09154 4.90704 3.09775C6.14722 2.09934 7.75305 1.55901 9.8519 1.28129C11.9633 1.00192 14.4611 1.00009 17.4428 1.00009H160.646H303.849C306.346 1.00009 308.515 1.00221 310.407 1.27937C312.282 1.55408 313.793 2.08822 315.001 3.08894C317.419 5.09164 319 9.2921 319 18.5498V257.568C319 262.976 318.404 266.572 316.372 268.87C314.368 271.137 310.719 272.397 303.849 272.397H59.4347Z" fill="white" stroke="#3FC9C8" stroke-width="2" stroke-linecap="round" stroke-linejoin="round"/>
</svg>
