<svg width="320" height="293" viewBox="0 0 320 293" fill="none" xmlns="http://www.w3.org/2000/svg">
<path d="M260.565 272.397C260.885 272.397 261.186 272.55 261.374 272.809C266.518 279.883 276.174 290.389 289.304 291.498C285.994 287.269 283.342 280.975 284.119 273.296C284.171 272.786 284.601 272.397 285.114 272.397H302.557C305.157 272.397 307.476 272.396 309.527 272.157C311.572 271.918 313.259 271.451 314.612 270.578C317.238 268.885 319 265.388 319 257.568V18.5498C319 9.26159 317.57 5.09154 315.093 3.09775C313.853 2.09934 312.247 1.55901 310.148 1.28129C308.037 1.00192 305.539 1.00009 302.557 1.00009H159.354H16.1507C13.6539 1.00009 11.485 1.00221 9.59311 1.27937C7.7179 1.55408 6.20676 2.08822 4.99857 3.08894C2.58063 5.09164 0.999969 9.2921 0.999969 18.5498V257.568C0.999969 262.976 1.59637 266.572 3.62796 268.87C5.63242 271.137 9.28094 272.397 16.1507 272.397H260.565Z" fill="white" stroke="#F39DC0" stroke-width="2" stroke-linecap="round" stroke-linejoin="round"/>
</svg>
